<svg width="1113" height="715" viewBox="0 0 1113 715" fill="none" xmlns="http://www.w3.org/2000/svg">
<g clip-path="url(#clip0)">
<path fill-rule="evenodd" clip-rule="evenodd" d="M23.6246 684.168C20.0556 685.05 19.1171 689.627 18.4642 692.095C17.382 692.944 16.8217 694.079 16.3698 695.275C14.2686 694.823 12.6852 696.958 12.6899 698.699C11.2425 698.765 9.31332 699.1 8.53429 698.318C9.04043 698.202 9.43897 698.027 9.61063 697.728C9.97484 695.874 7.42149 696.545 7.3855 697.752C7.78322 700.541 10.8298 699.407 12.7954 699.676C12.8677 700.167 13.0956 700.369 13.193 700.813C11.1171 701.488 10.041 702.712 9.51319 704.237C9.71984 705.357 10.2031 706.217 11.0694 706.274C11.9322 706.331 13.1382 705.591 12.887 704.78C12.4809 703.469 11.0339 705.026 10.4455 704.619C10.514 703.016 12.1759 702.289 13.7118 701.492C14.4514 702.861 16.8327 702.779 18.3026 701.654C18.8043 702.632 20.0733 702.68 20.826 703.303C21.4651 703.832 21.8941 704.74 22.5559 705.37C24.785 707.489 27.3804 709.662 31.3394 707.836C32.0221 707.521 32.8828 706.143 33.0185 705.543C33.4836 703.496 31.8018 702.08 30.472 701.124C32.0326 700.275 32.5444 698.888 33.2626 697.473C33.8325 696.348 34.3027 695.506 34.1087 694.263C33.464 690.128 29.9139 689.78 27.1681 689.2C27.5456 688.107 28.0443 686.395 27.0622 684.942C26.4265 684.001 24.8685 683.86 23.6245 684.168" fill="#422123"/>
<path fill-rule="evenodd" clip-rule="evenodd" d="M16.1184 696.767C15.925 698.101 16.8661 699.434 17.3419 700.582C16.706 701.06 15.6851 701.239 15.1617 701.012C13.464 700.277 13.9295 695.933 16.1184 696.767Z" fill="#F79814"/>
<path fill-rule="evenodd" clip-rule="evenodd" d="M17.9362 695.212C18.5484 696.832 18.6378 698.717 19.0884 700.462C17.5386 699.471 17.5095 696.701 17.9362 695.212Z" fill="#F79814"/>
<path fill-rule="evenodd" clip-rule="evenodd" d="M28.8461 704.969C28.8509 704.52 28.2586 704.486 27.9255 704.332C27.0584 703.93 26.1879 703.428 25.2472 703.319C25.2358 703.276 25.1612 703.25 25.1712 703.343C26.2404 704.098 27.6096 704.914 28.8461 704.969L28.8461 704.969ZM21.0631 701.348C21.7817 701.695 22.3525 702.317 23.242 702.348C22.7952 701.73 21.75 701.207 21.0981 700.579C24.0879 699.975 27.8291 700.582 30.2023 702.103C31.056 702.652 31.9365 703.755 32.1018 705.38C31.5722 706.209 30.6988 706.997 29.2733 707.107C26.9721 707.284 24.1188 705.258 22.3486 703.301C21.7176 702.603 21.0952 702.263 21.0631 701.348Z" fill="white"/>
<path fill-rule="evenodd" clip-rule="evenodd" d="M20.7001 699.549C20.5964 698.451 20.3991 697.301 20.147 696.119C20.3556 695.955 20.4686 695.736 20.7315 695.602C21.0759 696.835 21.4204 698.068 21.7648 699.301C21.4735 699.262 21.0664 699.445 20.7001 699.549" fill="#F79814"/>
<path fill-rule="evenodd" clip-rule="evenodd" d="M19.4844 692.934C19.4103 692.956 19.399 692.858 19.3655 692.804C19.7956 691.42 20.217 689.721 21.0516 688.153C21.5476 687.222 22.4866 685.849 23.8925 685.581C25.1371 685.343 26.3459 686.353 26.2708 688.201C26.2506 688.712 25.8155 689.568 25.5383 690.029C24.4392 691.857 21.8013 693.448 20.2487 694.798C19.2405 693.925 20.1597 693.122 20.6367 692.322C21.4849 690.897 22.9522 689.199 23.7109 687.909C21.7655 689.027 20.5946 691.139 19.4843 692.934" fill="white"/>
<path fill-rule="evenodd" clip-rule="evenodd" d="M23.077 694.216C23.785 693.591 24.4534 692.944 25.148 692.311C26.0041 695.002 26.2067 697.329 26.3778 699.638C25.7201 699.623 25.0876 699.56 24.5171 699.38C24.0371 697.659 23.5569 695.937 23.077 694.216Z" fill="#F79814"/>
<path fill-rule="evenodd" clip-rule="evenodd" d="M27.3125 690.98C27.6567 690.954 27.9215 691.08 28.2361 691.111C28.9048 694.125 30.1283 697.452 29.9098 699.968C29.4334 700.336 28.9889 700.414 28.5318 700.23C28.6578 697.446 28.2671 694.372 27.3125 690.98Z" fill="#F79814"/>
<path fill-rule="evenodd" clip-rule="evenodd" d="M31.857 696.946C31.5748 695.303 30.9626 693.836 30.5222 692.169C30.698 692.021 31.189 692.315 31.4382 692.553C32.7736 693.826 33.1377 695.91 31.857 696.946Z" fill="#F79814"/>
</g>
<g clip-path="url(#clip1)">
<path fill-rule="evenodd" clip-rule="evenodd" d="M379.257 620.054C375.688 620.936 374.75 625.512 374.097 627.98C373.014 628.829 372.454 629.965 372.002 631.16C369.901 630.709 368.318 632.844 368.322 634.585C366.875 634.651 364.946 634.986 364.167 634.204C364.673 634.088 365.071 633.913 365.243 633.614C365.607 631.759 363.054 632.431 363.018 633.638C363.416 636.426 366.462 635.292 368.428 635.562C368.5 636.053 368.728 636.255 368.825 636.699C366.75 637.374 365.673 638.598 365.146 640.123C365.352 641.243 365.836 642.103 366.702 642.16C367.565 642.217 368.771 641.476 368.519 640.665C368.113 639.354 366.666 640.912 366.078 640.505C366.146 638.901 367.808 638.175 369.344 637.378C370.084 638.747 372.465 638.665 373.935 637.539C374.437 638.518 375.706 638.566 376.458 639.189C377.097 639.718 377.527 640.626 378.188 641.256C380.417 643.375 383.013 645.547 386.972 643.722C387.654 643.407 388.515 642.029 388.651 641.429C389.116 639.382 387.434 637.966 386.104 637.01C387.665 636.16 388.177 634.774 388.895 633.359C389.465 632.234 389.935 631.392 389.741 630.149C389.096 626.014 385.546 625.665 382.8 625.086C383.178 623.992 383.677 622.281 382.695 620.828C382.059 619.887 380.501 619.746 379.257 620.054" fill="#422123"/>
<path fill-rule="evenodd" clip-rule="evenodd" d="M371.751 632.653C371.557 633.987 372.498 635.32 372.974 636.468C372.338 636.946 371.318 637.125 370.794 636.898C369.096 636.163 369.562 631.819 371.751 632.653Z" fill="#F79814"/>
<path fill-rule="evenodd" clip-rule="evenodd" d="M373.569 631.097C374.181 632.718 374.27 634.602 374.721 636.347C373.171 635.357 373.142 632.586 373.569 631.097Z" fill="#F79814"/>
<path fill-rule="evenodd" clip-rule="evenodd" d="M384.478 640.854C384.483 640.406 383.891 640.372 383.558 640.217C382.691 639.816 381.82 639.314 380.88 639.205C380.868 639.162 380.794 639.136 380.804 639.229C381.873 639.984 383.242 640.799 384.479 640.854L384.478 640.854ZM376.696 637.233C377.414 637.581 377.985 638.203 378.874 638.234C378.428 637.616 377.382 637.093 376.731 636.464C379.72 635.861 383.462 636.467 385.835 637.989C386.688 638.537 387.569 639.641 387.734 641.266C387.205 642.095 386.331 642.883 384.906 642.993C382.605 643.17 379.751 641.144 377.981 639.187C377.35 638.489 376.728 638.148 376.696 637.233Z" fill="white"/>
<path fill-rule="evenodd" clip-rule="evenodd" d="M376.332 635.435C376.229 634.337 376.031 633.187 375.779 632.005C375.988 631.841 376.101 631.622 376.364 631.487C376.708 632.72 377.053 633.954 377.397 635.187C377.106 635.148 376.699 635.331 376.332 635.435" fill="#F79814"/>
<path fill-rule="evenodd" clip-rule="evenodd" d="M375.117 628.82C375.043 628.842 375.031 628.744 374.998 628.69C375.428 627.306 375.849 625.607 376.684 624.039C377.18 623.108 378.119 621.735 379.525 621.467C380.77 621.229 381.978 622.239 381.903 624.087C381.883 624.597 381.448 625.453 381.171 625.915C380.072 627.743 377.434 629.334 375.881 630.684C374.873 629.811 375.792 629.008 376.269 628.207C377.117 626.783 378.585 625.085 379.343 623.795C377.398 624.913 376.227 627.025 375.117 628.82" fill="white"/>
<path fill-rule="evenodd" clip-rule="evenodd" d="M378.709 630.101C379.417 629.476 380.086 628.829 380.78 628.197C381.636 630.888 381.839 633.214 382.01 635.524C381.352 635.509 380.72 635.445 380.149 635.266C379.67 633.545 379.189 631.823 378.709 630.101Z" fill="#F79814"/>
<path fill-rule="evenodd" clip-rule="evenodd" d="M382.945 626.866C383.289 626.84 383.554 626.966 383.869 626.997C384.537 630.011 385.761 633.338 385.542 635.854C385.066 636.221 384.621 636.3 384.164 636.115C384.29 633.332 383.9 630.258 382.945 626.866Z" fill="#F79814"/>
<path fill-rule="evenodd" clip-rule="evenodd" d="M387.489 632.831C387.207 631.189 386.595 629.722 386.155 628.055C386.33 627.906 386.821 628.201 387.071 628.439C388.406 629.712 388.77 631.796 387.489 632.831Z" fill="#F79814"/>
</g>
<g clip-path="url(#clip2)">
<path fill-rule="evenodd" clip-rule="evenodd" d="M318.257 15.0531C314.688 15.9351 313.749 20.5118 313.096 22.9798C312.014 23.8288 311.454 24.9646 311.002 26.16C308.901 25.7086 307.317 27.8437 307.322 29.5842C305.875 29.6506 303.946 29.9857 303.167 29.2034C303.673 29.0874 304.071 28.9127 304.243 28.6134C304.607 26.7589 302.054 27.4302 302.018 28.6371C302.416 31.4258 305.462 30.292 307.428 30.5614C307.5 31.0525 307.728 31.2543 307.825 31.6985C305.749 32.373 304.673 33.5972 304.145 35.1228C304.352 36.2422 304.835 37.1026 305.702 37.1596C306.564 37.2166 307.771 36.4759 307.519 35.6648C307.113 34.3538 305.666 35.9117 305.078 35.5044C305.146 33.9009 306.808 33.1742 308.344 32.3774C309.084 33.7465 311.465 33.664 312.935 32.5389C313.437 33.5171 314.706 33.5653 315.458 34.1882C316.097 34.7177 316.526 35.6252 317.188 36.2552C319.417 38.3743 322.013 40.5469 325.972 38.7211C326.654 38.406 327.515 37.0286 327.651 36.4283C328.116 34.3817 326.434 32.9654 325.104 32.0091C326.665 31.1599 327.177 29.7734 327.895 28.3585C328.465 27.2337 328.935 26.3915 328.741 25.1481C328.096 21.0131 324.546 20.6649 321.8 20.0856C322.178 18.992 322.677 17.2802 321.694 15.8276C321.059 14.8867 319.501 14.7456 318.257 15.0531" fill="#422123"/>
<path fill-rule="evenodd" clip-rule="evenodd" d="M310.751 27.6523C310.557 28.9859 311.498 30.3191 311.974 31.4672C311.338 31.9449 310.317 32.1244 309.794 31.897C308.096 31.1618 308.562 26.8184 310.751 27.6523" fill="#F79814"/>
<path fill-rule="evenodd" clip-rule="evenodd" d="M312.569 26.0969C313.181 27.7173 313.27 29.6018 313.721 31.347C312.171 30.3567 312.142 27.5858 312.569 26.0969Z" fill="#F79814"/>
<path fill-rule="evenodd" clip-rule="evenodd" d="M323.478 35.8536C323.483 35.4053 322.891 35.3711 322.558 35.2167C321.691 34.8151 320.82 34.3131 319.88 34.2041C319.868 34.1609 319.794 34.1349 319.804 34.2279C320.873 34.9829 322.242 35.7987 323.478 35.8536L323.478 35.8536ZM315.695 32.2325C316.414 32.5805 316.985 33.2022 317.874 33.2332C317.427 32.6153 316.382 32.0922 315.73 31.4637C318.72 30.8598 322.461 31.4667 324.835 32.9883C325.688 33.5366 326.569 34.6405 326.734 36.265C326.204 37.0943 325.331 37.8821 323.906 37.9924C321.604 38.1693 318.751 36.1435 316.981 34.1863C316.35 33.4878 315.727 33.1477 315.695 32.2325Z" fill="white"/>
<path fill-rule="evenodd" clip-rule="evenodd" d="M315.332 30.4347C315.229 29.3366 315.031 28.1861 314.779 27.0045C314.988 26.8401 315.101 26.6217 315.364 26.4869C315.708 27.7198 316.053 28.9532 316.397 30.1861C316.106 30.1477 315.699 30.33 315.332 30.4346" fill="#F79814"/>
<path fill-rule="evenodd" clip-rule="evenodd" d="M314.117 23.8199C314.043 23.8417 314.031 23.7438 313.998 23.6894C314.428 22.3053 314.849 20.6066 315.684 19.0386C316.18 18.1079 317.119 16.7347 318.525 16.4663C319.769 16.2287 320.978 17.2388 320.903 19.0866C320.883 19.5972 320.448 20.4532 320.171 20.9145C319.072 22.7429 316.434 24.334 314.881 25.6838C313.873 24.8103 314.792 24.0078 315.269 23.2072C316.117 21.7824 317.585 20.0844 318.343 18.7947C316.398 19.9123 315.227 22.0244 314.117 23.82" fill="white"/>
<path fill-rule="evenodd" clip-rule="evenodd" d="M317.709 25.101C318.417 24.4758 319.086 23.8288 319.78 23.1965C320.636 25.8871 320.839 28.2139 321.01 30.5231C320.352 30.5081 319.72 30.445 319.149 30.2657C318.669 28.5445 318.189 26.8223 317.709 25.101" fill="#F79814"/>
<path fill-rule="evenodd" clip-rule="evenodd" d="M321.945 21.8651C322.289 21.8394 322.554 21.9657 322.868 21.9962C323.537 25.0106 324.761 28.3374 324.542 30.8531C324.066 31.2209 323.621 31.299 323.164 31.1149C323.29 28.3313 322.899 25.2571 321.945 21.8651" fill="#F79814"/>
<path fill-rule="evenodd" clip-rule="evenodd" d="M326.489 27.8307C326.207 26.1881 325.595 24.7214 325.154 23.0542C325.33 22.9057 325.821 23.2003 326.071 23.438C327.406 24.711 327.77 26.7949 326.489 27.8307Z" fill="#F79814"/>
</g>
<g clip-path="url(#clip3)">
<path fill-rule="evenodd" clip-rule="evenodd" d="M1100.27 21.7838C1097.71 19.1443 1093.28 20.6379 1090.82 21.3164C1089.54 20.8089 1088.28 20.8967 1087.02 21.1081C1086.35 19.0654 1083.71 18.7724 1082.21 19.6528C1081.42 18.4356 1080.16 16.9376 1080.44 15.8706C1080.8 16.2495 1081.15 16.5059 1081.5 16.5035C1083.28 15.8844 1081.42 14.0164 1080.36 14.593C1078.15 16.3407 1080.66 18.4021 1081.42 20.236C1081.03 20.5457 1080.97 20.8442 1080.63 21.152C1079.01 19.6981 1077.41 19.3847 1075.82 19.6968C1074.96 20.439 1074.46 21.2898 1074.85 22.0669C1075.23 22.8411 1076.48 23.5101 1077.05 22.8846C1077.98 21.8737 1075.91 21.4079 1075.96 20.6945C1077.38 19.9463 1078.85 21.0163 1080.31 21.9421C1079.5 23.2704 1080.77 25.2863 1082.48 25.9898C1081.89 26.9158 1082.49 28.0365 1082.33 29.0004C1082.19 29.8192 1081.62 30.6468 1081.41 31.5359C1080.7 34.5287 1080.13 37.865 1083.7 40.3663C1084.32 40.7975 1085.94 40.8476 1086.53 40.6626C1088.53 40.0339 1088.91 37.8677 1089.07 36.2373C1090.59 37.1581 1092.04 36.9021 1093.63 36.8103C1094.88 36.7364 1095.85 36.7186 1096.83 35.9249C1100.07 33.2859 1098.59 30.0433 1097.7 27.3792C1098.84 27.1548 1100.57 26.7238 1101.33 25.1439C1101.82 24.1208 1101.16 22.7037 1100.27 21.7838" fill="#422123"/>
<path fill-rule="evenodd" clip-rule="evenodd" d="M1085.6 21.6421C1084.35 22.1465 1083.68 23.6309 1082.92 24.6201C1082.19 24.3112 1081.52 23.5195 1081.45 22.9528C1081.23 21.1158 1085.22 19.3311 1085.6 21.6421Z" fill="#F79814"/>
<path fill-rule="evenodd" clip-rule="evenodd" d="M1087.86 22.4298C1086.77 23.7746 1085.19 24.8007 1083.91 26.0687C1083.98 24.2311 1086.36 22.8108 1087.86 22.4298Z" fill="#F79814"/>
<path fill-rule="evenodd" clip-rule="evenodd" d="M1084.93 36.7682C1085.32 36.5467 1085.05 36.0177 1085.01 35.6522C1084.92 34.7008 1084.92 33.696 1084.54 32.8284C1084.57 32.7967 1084.56 32.7192 1084.48 32.7747C1084.37 34.0786 1084.35 35.6724 1084.93 36.7683L1084.93 36.7682ZM1084.14 28.2206C1084.2 29.0166 1083.95 29.8229 1084.37 30.607C1084.68 29.9098 1084.6 28.7434 1084.82 27.8637C1086.85 30.1428 1088.2 33.6808 1088.08 36.4974C1088.04 37.5109 1087.53 38.8275 1086.21 39.7884C1085.23 39.7483 1084.11 39.3904 1083.29 38.2143C1081.98 36.3151 1082.3 32.8299 1083.1 30.3149C1083.38 29.4181 1083.36 28.7091 1084.14 28.2206Z" fill="white"/>
<path fill-rule="evenodd" clip-rule="evenodd" d="M1085.51 27.0017C1086.4 26.3592 1087.3 25.6094 1088.19 24.7967C1088.44 24.8942 1088.68 24.8819 1088.93 25.0411C1088.04 25.9594 1087.15 26.8781 1086.26 27.7964C1086.14 27.5254 1085.78 27.2655 1085.51 27.0016" fill="#F79814"/>
<path fill-rule="evenodd" clip-rule="evenodd" d="M1090.61 22.6209C1090.55 22.5678 1090.63 22.5087 1090.66 22.4524C1092.07 22.1271 1093.75 21.6359 1095.53 21.5675C1096.58 21.5274 1098.24 21.6473 1099.18 22.7269C1100.01 23.6825 1099.75 25.2355 1098.12 26.101C1097.66 26.3406 1096.71 26.3958 1096.17 26.3885C1094.03 26.3595 1091.33 24.8814 1089.38 24.2197C1089.63 22.9088 1090.79 23.2989 1091.72 23.3079C1093.38 23.3234 1095.58 23.7362 1097.08 23.7423C1095.13 22.6242 1092.72 22.676 1090.61 22.6208" fill="white"/>
<path fill-rule="evenodd" clip-rule="evenodd" d="M1091.31 26.3699C1092.21 26.6668 1093.1 26.9186 1094 27.2003C1092.11 29.2947 1090.2 30.6413 1088.29 31.9518C1087.97 31.376 1087.71 30.7977 1087.57 30.2146C1088.82 28.9332 1090.07 27.6512 1091.31 26.3699Z" fill="#F79814"/>
<path fill-rule="evenodd" clip-rule="evenodd" d="M1096.24 28.4002C1096.44 28.6846 1096.46 28.9769 1096.59 29.2642C1094.32 31.3597 1092.07 34.0918 1089.78 35.1697C1089.22 34.9433 1088.93 34.5986 1088.86 34.1109C1091.33 32.8183 1093.79 30.9328 1096.24 28.4002Z" fill="#F79814"/>
<path fill-rule="evenodd" clip-rule="evenodd" d="M1093.37 35.3301C1094.65 34.2592 1095.61 32.9918 1096.83 31.7719C1097.05 31.849 1097.04 32.4215 1096.96 32.7565C1096.53 34.5513 1094.91 35.9151 1093.37 35.3301Z" fill="#F79814"/>
</g>
<defs>
<clipPath id="clip0">
<rect width="34.2231" height="28.4873" fill="white" transform="translate(12.9472 714.413) rotate(-111.566)"/>
</clipPath>
<clipPath id="clip1">
<rect width="34.2231" height="28.4873" fill="white" transform="translate(368.58 650.299) rotate(-111.566)"/>
</clipPath>
<clipPath id="clip2">
<rect width="34.2231" height="28.4873" fill="white" transform="translate(307.579 45.2983) rotate(-111.566)"/>
</clipPath>
<clipPath id="clip3">
<rect width="34.2231" height="28.4873" fill="white" transform="translate(1068.76 27.7874) rotate(-51.7981)"/>
</clipPath>
</defs>
</svg>
