<svg width="112" height="163" viewBox="0 0 112 163" fill="none" xmlns="http://www.w3.org/2000/svg">
<path d="M-7.95134 162.004C-7.48729 154.705 -4.72203 146.444 -2.09006 139.828C0.536155 133.223 4.57466 127.468 9.4675 122.868C15.0804 117.591 21.7557 113.666 28.4914 110.633C34.8072 107.788 41.4394 106.289 47.8548 103.82C58.4958 99.7261 68.2853 91.5856 74.5253 80.8608C77.8592 75.1315 80.1728 68.4463 82.3723 62.0786C85.0714 54.2622 86.2354 47.035 86.3226 38.6349C86.3281 38.1421 85.2785 38.3906 85.2747 38.7861C85.1874 47.185 84.0234 54.4134 81.3243 62.2287C78.8611 69.3574 76.2598 76.8102 72.2194 82.9885C67.8309 89.6989 62.1355 95.116 55.7229 99.1162C49.2643 103.146 42.3157 104.834 35.3393 107.256C24.5143 111.013 13.3575 116.872 5.28612 126.141C1.79216 130.153 -1.09292 134.817 -3.1381 139.978C-5.76333 146.604 -8.53431 154.848 -8.99934 162.154C-9.03005 162.637 -7.97629 162.406 -7.95134 162.004" fill="black"/>
<path d="M85.4645 39.1331C83.1308 38.7958 81.005 33.9053 80.2495 31.7C79.2648 28.8255 79.0423 25.4495 78.8582 22.39C78.5995 18.0799 80.4882 -2.49685 88.4714 2.675C90.6306 4.07228 91.8407 9.07438 92.2424 11.6116C92.787 15.0434 92.8589 20.155 92.2022 23.5168C91.5272 26.976 90.2884 30.4265 88.8943 33.5528C88.4762 34.4912 86.6506 39.6894 85.2153 39.8744C84.7061 39.9402 84.3447 40.63 85.0723 40.5369C87.0168 40.2861 88.3927 37.0558 89.2422 35.3859C91.0496 31.8314 92.5127 27.3735 93.2501 23.3668C94.2722 17.8204 94.2904 1.57886 86.9267 0.989746C80.4978 0.476152 78.2676 12.3737 77.8102 17.6376C77.4133 22.1995 77.7689 27.713 79.2015 32.0208C80.074 34.6445 82.1805 39.4014 84.822 39.7824C85.1538 39.8305 86.0512 39.2174 85.4644 39.1331" fill="black"/>
<path d="M85.6678 2.74609C85.6697 2.67594 85.6733 2.60703 85.676 2.53812C85.327 2.58747 84.977 2.63777 84.628 2.68712C84.4766 8.70547 83.696 14.8902 83.1198 20.8823C82.5723 26.5743 81.7333 33.0317 83.6385 38.4971C83.7834 38.9132 84.8188 38.556 84.6865 38.1762C82.6183 32.2422 83.7142 25.3117 84.3298 19.139C84.8715 13.6955 85.537 8.0079 85.676 2.53816C85.6896 2.0476 84.6424 2.28954 84.628 2.68717C84.6253 2.75732 84.6226 2.82747 84.6199 2.89638C84.6036 3.38586 85.6535 3.14503 85.6688 2.74647" fill="black"/>
<path d="M85.6019 3.35607C86.6163 9.94488 87.1552 16.2348 86.6652 22.944C86.2472 28.6776 86.0295 34.9686 83.9652 40.2806C83.8233 40.6464 84.8616 40.5206 85.0131 40.1307C87.2472 34.3785 87.4514 27.3933 87.8263 21.1789C88.1993 14.9942 87.5877 9.12479 86.6498 3.03532C86.5876 2.62907 85.5338 2.91485 85.6019 3.35612" fill="black"/>
<path d="M79.7098 69.44C79.6826 69.5527 79.6552 69.6657 79.6294 69.7784C79.9668 69.6753 80.3024 69.5714 80.6399 69.4686C79.4155 67.7593 85.3151 62.8261 86.3775 61.9512C89.5483 59.3439 93.0336 57.3992 96.9188 56.6732C101.218 55.8705 108.92 54.9627 110.602 61.0708C112.951 69.6066 101.247 73.0833 96.0424 73.5728C92.4737 73.9079 89.1869 73.2005 85.7897 72.0091C83.9507 71.3652 79.8336 71.1747 79.1212 68.8313C78.9945 68.4141 77.9524 68.7558 78.0732 69.1521C78.9448 72.0222 84.1857 72.3748 86.2078 73.0559C90.1265 74.3755 94.0251 74.6371 98.0617 73.9396C103.237 73.0439 114.506 68.6057 111.498 60.2287C109.075 53.4811 99.1384 55.1785 94.4297 56.6524C90.8859 57.7605 87.5463 59.9002 84.6612 62.4735C83.5298 63.4842 78.1835 67.8644 79.6667 69.9373C79.8768 70.2306 80.5977 69.9621 80.6773 69.6284C80.7045 69.5157 80.7311 69.4028 80.7578 69.2901C80.8594 68.8619 79.8066 69.0328 79.7098 69.44" fill="black"/>
<path d="M79.6715 70.5847C86.8943 62.2877 98.0751 61.116 107.854 61.1062C108.248 61.1062 108.966 60.4272 108.261 60.4272C98.0319 60.4397 86.3919 61.704 78.8315 70.3887C78.402 70.8814 79.426 70.8672 79.6715 70.5849" fill="black"/>
<path d="M80.394 70.8728C82.2311 66.8442 89.4855 67.1114 92.6324 67.0873C95.4053 67.0656 98.2194 66.8058 100.965 66.3767C104.274 65.8598 108.881 64.1045 109.89 59.9444C109.994 59.5185 108.941 59.6871 108.842 60.0943C106.803 68.4965 93.4081 65.633 87.8565 66.6109C85.4518 67.0347 80.7172 68.0005 79.4179 70.8476C79.1888 71.3502 80.2339 71.2232 80.394 70.8724" fill="black"/>
<path d="M61.3375 94.1237C59.346 92.8567 58.3662 89.4435 57.4629 87.1537C56.3661 84.3745 55.5146 81.4705 54.9326 78.4942C54.3736 75.6373 54.0601 72.7223 53.9345 69.7996C53.8511 67.8833 53.7092 65.8608 54.0266 63.9653C54.5856 60.632 56.6174 57.0732 60.5015 60.8455C64.1316 64.3705 65.5785 72.2087 65.3647 77.397C65.2543 80.0787 64.5382 82.5699 63.961 85.152C63.3713 87.7878 63.051 91.3193 61.7422 93.6528C61.4813 94.116 62.5314 94.0098 62.7174 93.6776C64.3052 90.8481 64.5957 86.7329 65.3359 83.5365C66.2353 79.6524 66.7118 76.1122 66.1212 72.1109C65.4318 67.4362 62.6598 57.4933 57.0335 58.3266C51.3669 59.1665 52.7313 69.7095 53.1685 73.9637C53.6489 78.6275 54.7247 83.1905 56.415 87.4732C57.4026 89.9775 58.2895 93.2933 60.5035 94.7026C60.8007 94.891 61.7652 94.395 61.3376 94.1233" fill="black"/>
<path d="M61.1184 93.8789C61.1129 87.2397 61.9717 80.157 59.684 73.9C59.0118 72.0614 53.0221 60.8657 56.0079 59.0753C56.6301 58.703 55.703 58.5147 55.3587 58.7206C52.3749 60.5088 56.0481 67.955 56.8765 69.891C58.6015 73.9284 60.032 77.6483 60.0656 82.2179C60.0952 86.2104 60.0665 90.2062 60.0683 94.1997C60.0683 94.5688 61.1173 94.3444 61.1173 93.8789" fill="black"/>
<path d="M55.1592 58.973C53.464 64.7285 60.3406 68.7758 62.2516 73.4254C64.9516 79.9902 62.0137 89.0067 59.7423 95.2353C59.6043 95.612 60.6465 95.4796 60.7903 95.0854C62.9764 89.0911 65.1156 81.9624 63.9909 75.3506C63.5354 72.6776 61.9812 70.0944 60.3742 68.1364C58.1919 65.4765 54.9856 62.97 56.2072 58.822C56.3259 58.4168 55.2781 58.5702 55.1592 58.9731" fill="black"/>
<path d="M25.3122 111.652C21.5632 111.952 18.9188 100.856 18.2525 97.8066C17.6426 95.0153 17.1834 92.1113 16.9312 89.25C16.6888 86.5135 16.2619 80.5335 18.3369 78.3543C20.2967 77.9371 22.2565 77.5199 24.2173 77.1027C24.8971 77.8692 25.4302 78.7573 25.8175 79.7669C26.2528 80.7897 26.528 81.9001 26.8147 82.9831C27.5204 85.6484 28.0286 88.2929 28.206 91.0743C28.6259 97.6719 28.066 103.814 26.272 110.076C26.621 109.998 26.971 109.92 27.32 109.841C27.2385 109.63 27.1561 109.418 27.0746 109.207C26.9145 108.793 25.8847 109.161 26.0266 109.527C26.1081 109.738 26.1905 109.95 26.272 110.162C26.4313 110.572 27.2222 110.268 27.32 109.926C29.8292 101.168 30.2175 91.5536 27.8627 82.6619C26.669 78.1547 23.385 72.4101 18.9016 76.3599C13.7537 80.8945 15.8477 91.4014 17.0635 97.4241C17.8497 101.316 20.3302 112.702 25.1694 112.314C25.6852 112.273 26.04 111.594 25.3123 111.652" fill="black"/>
<path d="M19.1903 76.7027C23.3304 81.9468 25.3996 87.2719 25.3891 94.3645C25.3809 100.37 24.5299 106.19 24.3976 112.181C24.7466 112.102 25.0956 112.024 25.4446 111.945C25.2653 106.253 23.8444 99.4804 21.7513 94.3074C20.8414 92.0582 19.7722 89.9261 19.0982 87.5456C18.9044 86.8601 17.5631 78.3768 17.9678 78.2947C18.4635 78.1938 18.8336 77.4855 18.1115 77.6322C18.0205 77.6508 17.9303 77.6694 17.8392 77.6868C17.6455 77.7275 17.2975 77.8281 17.2438 78.0942C16.2534 83.0306 18.1144 88.6952 19.9429 93.0524C22.3821 98.867 24.1915 105.764 24.3976 112.266C24.4085 112.64 25.4369 112.398 25.4446 112.031C25.5903 105.493 26.6316 99.1781 26.4571 92.5981C26.2816 86.007 23.9709 81.0563 20.1635 76.2338C19.9199 75.9262 18.9189 76.3598 19.1902 76.7025" fill="black"/>
<path d="M35.5122 108.585C38.4845 108.597 41.4444 107.659 44.4503 107.527C48.0583 107.368 51.7134 107.355 55.2859 108.034C59.7847 108.891 71.9521 113.32 69.8782 120.94C68.7286 125.165 57.426 123.684 54.4182 123.036C51.3116 122.365 48.1456 121.301 45.3976 119.517C42.4636 117.61 39.94 115.549 38.0032 112.356C37.1278 110.913 36.5151 108.919 35.1507 107.955C34.8612 107.75 33.8937 108.235 34.3165 108.534C35.587 109.431 36.1977 111.469 37.03 112.824C38.0598 114.501 39.1768 116.035 40.615 117.265C43.479 119.711 46.6479 121.503 50.0699 122.609C54.1948 123.944 58.2525 124.412 62.5403 124.27C64.8348 124.195 68.5061 124.242 70.2406 122.076C74.7921 116.391 63.8961 109.966 60.5632 108.683C56.9312 107.286 53.0835 106.827 49.2684 106.775C47.3296 106.75 45.3871 106.803 43.4512 106.921C40.9832 107.073 38.3608 107.916 35.9197 107.906C35.5246 107.904 34.8074 108.581 35.5122 108.585" fill="black"/>
<path d="M34.5298 108.958C38.1349 109.008 41.8638 110.074 45.1794 111.631C48.4912 113.185 51.0263 116.045 54.1261 117.948C58.8723 120.861 64.8659 120.922 70.1269 120.921C70.521 120.92 71.2401 120.242 70.5354 120.242C70.126 120.242 69.7165 120.242 69.3081 120.242C68.913 120.242 68.1949 120.921 68.9006 120.921C69.0079 120.695 69.1164 120.469 69.2247 120.242C68.7903 120.239 68.356 120.236 67.9226 120.233C67.0836 120.097 66.1852 120.196 65.3376 120.123C63.7546 119.987 62.3211 119.546 60.7889 119.206C58.9011 118.788 57.1858 118.656 55.4436 117.639C53.8471 116.707 52.4981 115.372 51.0129 114.244C46.2945 110.664 40.648 108.36 34.9373 108.28C34.5413 108.274 33.8241 108.949 34.5298 108.959" fill="black"/>
<path d="M36.2112 108.853C36.915 110.107 38.7194 110.054 39.8873 110.173C42.8318 110.476 45.7888 110.587 48.7352 110.788C50.5024 110.91 52.2235 110.841 53.9647 111.356C55.9763 111.95 57.8651 113.246 59.778 114.144C61.4741 114.941 63.3093 115.592 64.9086 116.623C66.3593 117.557 67.4946 118.959 69.0143 119.75C69.324 119.911 70.2819 119.396 69.8485 119.171C68.533 118.487 67.4735 117.244 66.2394 116.408C64.8453 115.465 63.3151 114.817 61.8155 114.118C58.9199 112.768 56.2064 110.965 53.095 110.388C50.4304 109.894 47.6298 109.851 44.9249 109.802C43.1866 109.77 38.1662 110.135 37.1844 108.385C36.9974 108.052 35.9782 108.438 36.2112 108.853Z" fill="black"/>
</svg>
