<svg width="153" height="212" viewBox="0 0 153 212" fill="none" xmlns="http://www.w3.org/2000/svg">
<g clip-path="url(#clip0)">
<path d="M81.6345 165.048C79.3646 164.696 76.9712 164.241 75.2621 162.708C73.5529 161.174 72.9448 158.189 74.6238 156.62C75.1523 156.126 75.834 155.831 76.4289 155.418C80.9855 152.258 77.84 144.488 72.7548 142.277C67.67 140.067 61.7955 140.958 56.3795 139.769C48.7314 138.089 42.2491 131.917 40.1992 124.362C44.067 123.023 48.0702 121.602 50.9921 118.737C53.9137 115.871 55.4134 111.117 53.3348 107.593C51.9821 105.3 49.4774 104.002 47.3139 102.451C41.8279 98.5173 38.0664 92.2629 37.1623 85.5735C43.5338 83.8798 51.0326 81.0385 52.2694 74.5644C52.957 70.967 51.3796 67.3809 50.1751 63.9225C47.1347 55.1894 46.3446 45.671 47.9098 36.5533C48.555 32.7948 51.4789 28.1004 54.9585 29.6621C56.6759 30.4308 57.4034 32.4349 57.961 34.2397C60.0274 40.9389 62.0929 47.6385 64.1593 54.3377C64.702 56.0986 65.3406 57.9905 66.8624 59.0228C70.6628 61.6011 75.1983 56.731 76.6738 52.3817C78.1502 48.0341 80.1399 42.4569 84.7308 42.3681C90.9575 42.2509 91.904 51.9231 97.1548 55.2691C101.853 58.2629 107.932 55.1555 112.591 52.098C116.484 64.2249 117.712 77.0422 118.271 89.7676C118.45 93.8391 118.644 98.168 120.971 101.515C123.296 104.861 128.619 106.445 131.486 103.547C133.252 101.763 133.724 98.7392 135.973 97.6235C139.883 95.6821 143.137 101.31 143.631 105.645C145.543 122.44 141.458 139.793 132.575 154.146C127.012 163.133 123.779 167.109 113.088 167.252C102.565 167.394 92.0332 166.66 81.6345 165.048Z" fill="#E0D070"/>
<path d="M58.1758 49.2946C62.4848 61.5819 68.2915 73.1976 74.1003 84.8278C80.277 97.1929 86.2435 109.656 92.8459 121.802C99.2157 133.521 106.042 145.062 113.949 155.819C120.957 165.354 129.01 176.512 139.607 182.277C140.675 182.859 143.339 180.34 142.087 179.658C131.393 173.84 123.181 162.225 116.163 152.569C108.541 142.081 101.924 130.867 95.7376 119.484C89.6944 108.366 84.1844 96.9836 78.5596 85.6519C72.3358 73.1124 65.9134 60.6799 61.2715 47.4406C60.7921 46.0728 57.7768 48.1546 58.1759 49.2946" fill="black"/>
<path d="M65.0421 61.3544C65.1796 61.2579 65.3174 61.16 65.4544 61.0625C65.8373 60.791 66.6032 59.9787 66.4231 59.4144C65.6735 57.0627 64.269 56.1256 62.6405 54.2819C60.2984 51.6282 58.2203 48.4749 56.5373 45.3671C54.5421 41.684 52.9405 37.6415 51.6967 33.6391C51.192 32.0193 50.6443 30.287 50.4149 28.5901C50.2367 27.2543 49.2468 25.3217 50.9966 25.857C53.5059 26.6284 54.3673 31.5992 55.2865 33.815C56.7718 37.3934 58.3847 40.6964 59.0136 44.5416C60.0315 50.759 60.3415 57.7534 62.5421 63.6778C63.0483 65.0415 66.0558 62.9521 65.638 61.827C62.2767 52.7756 63.0121 42.8059 59.1939 33.7855C57.8874 30.6986 55.2302 20.0058 49.7593 22.5532C45.1984 24.6786 47.5744 32.1845 48.5971 35.4839C49.885 39.6313 51.5827 43.8727 53.6486 47.6892C55.0185 50.2221 56.6711 52.6418 58.4499 54.9072C60.031 56.9198 62.5309 58.7675 63.3273 61.2653C63.6504 60.7155 63.9729 60.167 64.296 59.6172C64.1581 59.7151 64.0207 59.8116 63.8837 59.9091C62.0597 61.203 63.2399 62.6333 65.0421 61.3544Z" fill="black"/>
<path d="M68.0016 77.5824C68.0117 77.8147 68.0211 78.0484 68.0312 78.2808C68.4884 77.6369 68.947 76.9936 69.4046 76.3507C65.9628 78.5597 53.9804 65.2388 52.2451 63.2842C45.8604 56.0892 41.0315 47.798 38.5001 38.497C37.664 39.2592 36.8287 40.0209 35.9935 40.7827C39.0975 40.7666 43.1321 45.6689 45.4148 47.5813C48.8026 50.4111 52.4886 53.4277 55.5505 56.6089C61.0452 62.3208 63.8741 71.1611 67.0106 78.2965C67.4536 79.3042 70.4616 77.2508 69.9019 75.9776C65.9258 66.9323 62.6217 58.0937 55.1753 51.4245C51.6681 48.2855 48.0863 45.2341 44.5717 42.0983C42.5153 40.2617 40.8748 38.0341 37.9072 38.0561C37.0242 38.0606 35.1027 39.2451 35.4046 40.351C39.3226 54.7427 48.4201 65.8688 59.7954 75.1694C61.8345 76.837 71.3843 82.4884 71.0972 75.7306C71.0449 74.494 67.9476 76.3093 68.0017 77.5824" fill="black"/>
<path d="M72.7016 73.4436C68.9028 65.0088 66.8632 57.1281 66.4851 47.8781C66.3017 43.3547 66.5048 31.5252 70.6368 28.262C69.9609 28.4056 69.289 28.5586 68.613 28.7022C72.9751 35.4775 72.2958 45.2033 72.9279 52.9155C73.3401 57.9369 73.2472 62.745 72.118 67.6777C71.465 70.5331 70.839 74.9167 69.3465 77.4714C68.1282 79.5547 71.1067 78.7464 71.8063 77.5488C75.5034 71.2232 76.7597 61.2756 76.3107 54.0846C75.7675 45.3873 76.3863 33.967 71.5026 26.3796C71.0903 25.7387 69.813 26.5523 69.4787 26.8198C64.6691 30.6222 63.7459 39.2494 63.3691 44.8959C62.6407 55.7724 65.4016 65.9723 69.81 75.7615C70.2666 76.7721 73.272 74.7088 72.7016 73.4436Z" fill="black"/>
<path d="M77.4916 87.0572C69.3417 89.6871 57.1043 84.5551 50.1839 80.28C44.851 76.9844 34.6591 70.4609 32.7163 63.9606C32.2575 64.6008 31.8027 65.2501 31.343 65.8907C34.8065 63.9956 41.2296 67.6582 44.5473 69.2659C48.4234 71.1433 51.8739 73.7865 55.9454 75.2602C62.3729 77.5858 71.1725 82.9651 74.4834 89.3595C75.0124 90.3833 78.0061 88.2627 77.3737 87.0411C75.4086 83.2439 70.585 79.8548 67.2864 77.2752C63.2202 74.0947 58.543 73.0616 54.0933 70.6427C47.907 67.2793 38.2821 59.9027 30.995 63.8842C30.4711 64.1692 29.4074 65.0973 29.6217 65.8143C30.8149 69.806 33.9572 72.2844 37.1053 74.8184C41.0668 78.0077 44.9866 81.4915 49.4701 83.9449C57.0927 88.1161 68.4011 92.26 77.0334 89.4751C78.3518 89.0491 79.7888 86.3159 77.4916 87.0572Z" fill="black"/>
<path d="M76.2754 84.5424C73.5762 77.2444 76.9904 66.6178 79.0492 59.3418C80.2249 55.1856 81.7496 50.7884 83.5647 46.8598C83.9805 45.9645 87.5844 38.9104 88.4661 39.312C89.2822 39.6768 88.6076 41.9464 88.6369 42.5693C89.0717 51.1751 89.1625 59.6416 86.7841 67.9943C85.6533 71.963 83.807 76.2199 81.2961 79.4963C79.7844 81.4685 76.7568 85.7273 74.6706 87.2483C74.2746 87.5374 73.5403 88.3141 73.7028 88.896C73.747 89.0531 73.7903 89.2094 73.8338 89.3657C74.213 90.7249 77.2608 88.7023 76.9297 87.5149C76.8858 87.3586 76.8422 87.2014 76.7987 87.0451C76.4752 87.594 76.153 88.1434 75.83 88.6932C78.9841 86.3936 81.4266 82.6573 83.8157 79.6077C86.5014 76.1777 88.3794 71.7633 89.6173 67.6192C91.21 62.2888 92.0298 56.7545 92.0705 51.1888C92.0925 48.3126 91.8227 45.4386 91.8232 42.5609C91.8236 40.2916 92.4135 38.1359 91.3608 36.1103C91.2254 35.8519 90.7309 35.9049 90.5279 35.9393C83.5436 37.0473 79.8923 49.3149 77.9934 54.7196C76.2344 59.7263 75.011 64.7617 73.8443 69.941C72.6464 75.259 71.2351 81.1367 73.1795 86.3932C73.6835 87.7568 76.6914 85.6684 76.2754 84.5424Z" fill="black"/>
<path d="M80.9238 88.0021C82.0421 79.482 86.5144 71.6866 90.9944 64.4951C93.1459 61.0446 95.3082 57.5015 97.8634 54.3384C100.547 51.0144 100.148 53.9775 99.8539 56.7487C98.4131 70.3203 90.4471 83.8115 80.2748 92.6327C80.0203 92.8521 78.6046 94.3688 79.6138 94.664C79.8447 94.7325 80.0746 94.7991 80.3053 94.8676C81.5139 95.222 84.0068 92.6058 82.7858 92.248C82.5549 92.1795 82.3238 92.1124 82.0934 92.0449C81.8736 92.7224 81.6526 93.3995 81.4328 94.0771C88.6637 87.8073 94.7175 80.0172 98.3847 71.1736C99.9795 67.3276 105.543 55.2892 102.814 50.849C99.9208 46.1411 93.8588 56.2675 92.6482 58.0713C86.3557 67.4363 79.3397 77.8572 77.8423 89.2744C77.6265 90.9215 80.7704 89.1723 80.9239 88.0022" fill="black"/>
<path d="M88.0901 99.852C88.5556 93.4518 89.679 88.3485 92.5923 82.5724C95.3445 77.1182 97.3787 71.2231 100.387 65.9335C102.938 61.4525 105.232 55.3447 109.684 52.4504C112.259 50.7761 112.873 50.6715 111.619 53.7188C111.066 55.0648 110.66 56.4477 110.242 57.8439C106.911 68.959 103.205 80.9754 96.6193 90.6558C93.9228 94.62 90.8285 97.7867 87.4522 101.038C86.2471 102.198 85.4072 102.62 85.6555 104.387C85.8405 105.694 88.9283 103.787 88.7523 102.536C88.6798 102.03 95.63 95.6399 96.6521 94.1931C100.395 88.8929 103.398 83.6838 105.832 77.6526C108.246 71.6685 110.622 65.7351 112.457 59.5449C113.443 56.213 117.302 50.2859 115.74 46.7967C115.558 46.3882 114.782 46.6631 114.523 46.7474C106.191 49.4685 100.68 60.2854 96.9083 67.4935C91.3568 78.1027 85.8828 89.0953 85.0086 101.124C84.8857 102.811 88.0042 101.029 88.0901 99.8521" fill="black"/>
<path d="M91.6356 109.094C91.3129 103.233 94.7076 98.2278 97.4288 93.3144C99.8799 88.8914 101.507 83.9954 104.234 79.7438C108.131 73.6676 111.516 65.547 116.991 60.6937C116.385 60.8898 115.778 61.0854 115.171 61.2819C118.496 62.8054 114.755 73.7025 114.102 76.397C112.798 81.7758 111.316 87.5889 109.141 92.6493C107.283 96.9726 105.807 101.584 103.534 105.711C100.947 110.409 97.2555 117.062 92.9788 120.163C91.171 121.474 92.3452 122.908 94.1381 121.608C98.8606 118.183 101.146 113.369 104.236 108.609C107.954 102.879 110.353 96.2775 112.889 89.9561C115.357 83.8012 116.856 76.9532 118.121 70.445C118.719 67.364 121.833 60.5787 117.651 58.6614C117.103 58.4101 116.225 58.9015 115.831 59.2488C109.362 64.9842 105.047 74.0523 100.711 81.3517C97.7279 86.3734 95.5519 92.0008 92.7401 97.1524C90.3686 101.497 88.2612 105.896 88.5389 110.945C88.6081 112.193 91.7055 110.366 91.6356 109.094" fill="black"/>
<path d="M95.0205 122.723C95.124 122.873 95.228 123.025 95.3316 123.176C95.7607 123.803 97.0082 123.021 97.3557 122.739C100.084 120.535 101.226 116.394 103.082 113.469C106.072 108.753 109.49 103.838 112.002 98.8734C114.35 94.2328 115.573 88.7237 116.41 83.6202C116.57 82.6377 117.239 68.5274 117.723 68.5055C120.645 68.3765 118.768 84.3379 118.645 85.9811C118.194 92.067 117.054 97.9244 114.524 103.515C112.153 108.758 110.073 114.452 106.918 119.258C103.744 124.093 100.921 126.867 98.9151 132.296C99.9086 131.884 100.901 131.473 101.895 131.063C101.86 130.947 101.827 130.832 101.793 130.717C101.386 129.355 98.3447 131.392 98.6958 132.568C98.7308 132.683 98.7654 132.798 98.7985 132.914C99.214 134.303 101.532 132.348 101.779 131.679C104.085 125.437 108.93 121.405 111.89 115.585C114.502 110.448 117.057 104.418 118.978 98.9855C121.181 92.7577 121.517 86.3991 122.114 79.8894C122.589 74.7128 123.056 69.6238 119.887 65.1633C119.725 64.9363 119.282 64.9227 119.053 64.9918C111.445 67.2966 114.247 79.9341 113.131 85.9342C112.549 89.0641 111.785 92.225 110.819 95.2608C109.351 99.8641 106.549 102.801 104.159 106.82C102.346 109.869 100.684 112.986 98.8394 116.028C98.0786 117.281 97.1857 120.496 96.1976 121.294C96.8714 121.148 97.5471 121.004 98.2227 120.857C98.1183 120.706 98.0156 120.555 97.9113 120.405C97.2102 119.381 94.2674 121.625 95.0206 122.723" fill="black"/>
<path d="M83.258 100.175C78.0814 101.955 71.6453 99.0335 66.5812 97.709C62.1494 96.5483 58.0877 95.8652 54.1771 93.3704C50.6268 91.1065 46.88 89.5778 43.6487 86.9072C41.6756 85.2774 36.2749 81.9798 36.1112 78.7709C35.7881 79.3207 35.466 79.8701 35.1425 80.4189C35.3149 80.2773 39.6978 80.6484 39.5647 80.64C41.7813 80.7903 43.7486 81.127 45.8926 81.706C50.3292 82.9052 54.8557 84.0494 58.9693 85.9934C63.0567 87.9248 67.555 88.9751 71.5234 91.1649C75.7307 93.4865 78.6856 96.8705 82.2622 99.6359C83.3504 100.477 86.0489 98.0096 85.1534 97.3171C81.1345 94.209 77.9578 90.5049 73.1479 88.0623C67.5462 85.218 60.8827 82.7023 54.878 81.0119C49.3127 79.4452 44.6744 78.0091 38.8758 77.8428C37.0432 77.7901 33.8777 77.5317 33.1314 80.0051C32.3447 82.6112 37.0905 86.7141 38.8118 88.0677C42.6197 91.0625 46.7947 92.894 50.9275 95.4851C56.5716 99.0222 62.7836 99.9045 69.1743 101.632C73.9426 102.923 77.984 104.248 82.7998 102.593C84.1036 102.144 85.5413 99.3894 83.258 100.175Z" fill="black"/>
<path d="M86.5126 104.613C81.5564 106.997 77.7345 105.884 72.6479 105.915C68.6207 105.939 64.4543 106.27 60.4432 105.834C55.5429 105.301 50.5106 104.621 45.7497 103.31C43.2905 102.632 29.0213 98.0548 38.8078 95.8576C41.8233 95.181 47.4048 97.3381 50.4514 97.8525C54.8415 98.5941 59.3713 99.1023 63.6709 100.279C66.8291 101.145 70.0059 102.162 72.9887 103.509C76.0366 104.885 82.1398 106.672 84.4656 109.102C85.3835 110.06 88.2165 107.681 87.3568 106.783C85.8848 105.245 84.0708 104.936 82.1471 104.119C79.2827 102.904 76.6018 101.254 73.7013 100.104C68.864 98.1851 63.7728 97.0458 58.6585 96.1709C52.4143 95.1032 45.2794 92.7575 38.9341 93.0638C36.3979 93.1866 33.4617 94.121 32.0222 96.397C27.2683 103.916 46.7217 107.075 50.9638 107.548C57.6292 108.289 64.0142 108.622 70.7373 108.646C76.6748 108.667 80.5424 109.682 86.0545 107.031C87.254 106.454 88.6764 103.573 86.5126 104.613Z" fill="black"/>
<path d="M46.0094 104.741C42.8976 101.449 35.2305 101.448 31.6477 104.107C27.4445 107.228 29.9887 112.697 34.236 114.531C41.8416 117.815 52.6676 117.169 60.7691 117.465C65.8669 117.651 70.968 117.391 76.0722 117.519C78.5197 117.581 80.966 117.541 83.4142 117.542C84.4125 117.543 88.1931 117.272 89.0617 117.756C90.1223 118.348 92.7934 115.835 91.5422 115.137C88.7938 113.604 83.2181 114.851 80.1262 114.822C73.6149 114.761 67.064 114.944 60.5615 114.635C54.683 114.357 48.6712 114.15 42.8379 113.36C41.2373 113.144 39.0479 112.926 37.5464 112.235C35.9688 111.507 32.8765 109.327 32.8178 107.415C32.684 103.017 42.0459 105.926 43.1178 107.059C44.0278 108.022 46.8652 105.648 46.0094 104.741Z" fill="black"/>
<path d="M100.631 131.36C96.5821 130.03 92.3455 131.663 88.2161 131.861C83.0892 132.108 77.7752 132.131 72.6399 132.011C62.5427 131.778 51.247 129.422 42.5326 124.174C33.1534 118.526 45.701 119.579 50.0404 120.091C55.6414 120.751 61.0935 121.685 66.6432 122.608C71.4801 123.413 76.3427 123.818 81.204 124.404C85.7167 124.948 92.8641 126.11 96.5695 129.215C97.6164 130.092 100.354 127.645 99.4611 126.897C95.8757 123.892 89.7622 122.61 85.1832 121.89C78.2426 120.798 71.3177 120.387 64.4067 118.952C58.0972 117.643 50.0943 116.132 43.6651 116.924C40.2393 117.345 36.6138 118.593 34.6826 121.574C34.4981 121.86 34.1563 122.44 34.4676 122.771C41.4319 130.204 53.2848 132.356 62.8037 134.033C68.3565 135.012 74.0071 134.755 79.6149 134.599C82.4605 134.519 85.363 134.768 88.1932 134.493C91.4898 134.174 94.868 132.901 98.1505 133.979C99.3437 134.371 101.865 131.765 100.631 131.36Z" fill="black"/>
<path d="M99.2161 131.033C93.9424 131.756 88.1523 129.745 82.6987 130.134C76.0187 130.61 68.9042 131.696 62.2362 130.936C58.5886 130.522 43.4634 127.856 44.076 135.356C44.3963 139.276 50.6953 140.234 53.7772 140.736C60.1866 141.781 66.4179 142.527 72.7895 144.025C82.7195 146.357 94.9145 149.068 104.513 144.569C105.722 144.003 107.147 141.132 104.972 142.151C95.9866 146.363 83.5596 143.372 74.2976 141.174C70.5602 140.288 66.8213 139.294 63.0144 138.729C60.398 138.34 50.9801 138.809 49.3699 136.126C46.1951 130.837 58.8746 133.512 60.3246 133.667C64.5408 134.118 68.853 133.65 73.079 133.415C77.9217 133.145 82.873 132.452 87.7076 132.805C91.179 133.058 94.5195 134.169 97.9907 133.693C99.1647 133.533 101.283 130.749 99.2161 131.033Z" fill="black"/>
<path d="M109.09 139.899C107.713 131.03 110.278 120.469 112.977 112.035C114.481 107.334 116.638 102.712 119.133 98.4797C121.378 94.6667 123.073 90.1134 126.536 87.186C125.86 87.3307 125.185 87.4761 124.51 87.6216C128.95 94.1081 123.216 106.567 121.378 113.488C119.993 118.702 117.998 123.186 115.604 128.033C113.443 132.406 111.268 140.263 106.69 142.727C105.136 143.563 104.843 145.918 107.038 144.738C110.508 142.869 112.72 138.891 114.561 135.537C117.802 129.63 121.496 122.87 123.416 116.412C125.099 110.754 126.453 104.997 127.8 99.255C128.945 94.3734 130.447 89.7526 127.402 85.3036C126.976 84.6827 125.718 85.4519 125.376 85.7401C122.264 88.3721 120.033 92.0132 118.107 95.5742C115.394 100.586 112.599 105.555 110.648 110.963C107.32 120.193 104.468 131.92 105.995 141.751C106.199 143.065 109.285 141.147 109.09 139.899Z" fill="black"/>
<path d="M105.268 144.561C102.451 142.294 98.6269 144.418 95.37 144.58C89.1134 144.894 82.5624 144.772 76.3072 144.513C70.1629 144.258 60.2851 141.618 56.6478 148.98C52.7165 156.934 67.5648 156.407 71.4292 156.105C77.6778 155.616 83.8142 155.244 89.9624 153.958C92.545 153.417 95.1714 152.925 97.6645 152.043C100.227 151.138 103.378 148.701 106.211 149.348C107.44 149.629 109.879 147 108.692 146.729C107.074 146.359 105.482 146.729 103.893 147.204C99.9409 148.385 96.3179 150.19 92.2286 151.073C84.2755 152.791 74.1619 154.733 65.9466 153.704C64.4868 153.521 60.0686 152.658 59.7358 150.898C61.639 149.385 63.5422 147.872 65.4454 146.359C66.6612 146.396 67.8704 146.505 69.0727 146.685C73.2307 147.141 77.2023 147.133 81.3849 147.2C85.177 147.26 88.9474 147.355 92.7407 147.298C94.863 147.266 100.897 145.688 102.377 146.88C103.445 147.74 106.163 145.282 105.268 144.561Z" fill="black"/>
<path d="M112.811 142.664C113.85 142.429 117.938 131.439 118.381 130.72C120.441 127.377 122.673 124.233 124.467 120.734C128.61 112.656 133.739 102.392 141.451 97.0216C140.911 97.0736 140.371 97.1247 139.831 97.1757C142.66 102.295 137.857 113.237 135.131 117.628C132.409 122.012 128.797 125.777 125.852 130.003C122.764 134.432 120.129 139.14 116.8 143.376C114.804 145.914 111.43 148.626 110.567 151.846C110.159 153.364 113.346 151.702 113.649 150.573C114.196 148.528 119.368 143.486 120.336 142.2C121.653 140.451 122.748 138.654 123.895 136.79C127.067 131.637 130.723 126.958 134.403 122.172C137.189 118.548 139.525 114.881 140.965 110.524C142.569 105.671 145.373 99.6536 142.722 94.8578C142.45 94.3649 141.393 94.8097 141.101 95.0124C133.186 100.524 127.139 110.272 122.876 118.764C120.133 124.229 116.321 129.08 113.653 134.553C112.358 137.21 109.627 141.968 110.117 145.042C110.187 145.487 110.703 145.527 111.052 145.447C111.231 145.406 111.408 145.366 111.586 145.326C112.721 145.069 114.816 142.211 112.811 142.664" fill="black"/>
<path d="M115.255 152.678C109.768 153.408 104.251 151.872 98.7313 152.027C93.5594 152.174 88.6342 153.138 83.5204 153.564C79.7087 153.882 71.0144 154.642 70.6456 160.1C69.8517 171.815 109.485 156.024 113.933 154.124C115.175 153.593 116.607 150.759 114.391 151.706C108.451 154.245 102.289 155.884 96.1298 157.714C92.2806 158.859 88.6657 160.39 84.709 161.166C82.7323 161.553 70.2542 162.612 75.4135 157.363C77.3707 155.371 83.0022 156.494 85.5645 156.117C88.9872 155.613 92.2828 154.943 95.7739 154.799C101.896 154.548 107.956 156.147 114.031 155.338C115.206 155.181 117.324 152.402 115.255 152.678Z" fill="black"/>
<path d="M113.307 154.185C106.081 154.982 98.5981 158.83 92.0858 161.938C89.5314 163.157 83.0554 166.621 83.8196 170.408C85.8659 180.533 112.752 159.37 116.161 157.709C117.355 157.129 118.776 154.241 116.62 155.292C113.347 156.885 110.553 159.313 107.473 161.264C103.606 163.712 95.9496 170.583 91.4803 169.753C81.8643 167.967 94.9598 163.077 98.1538 161.711C102.759 159.744 107.015 157.405 112.083 156.847C113.266 156.716 115.388 153.956 113.307 154.185Z" fill="black"/>
<path d="M116.424 153.918C117.061 147.144 122.539 137.488 126.859 132.476C128.924 130.08 131.124 127.684 133.442 125.537C134.301 124.74 135.326 123.509 136.361 122.975C143.209 119.44 141.416 124.819 140.306 128.238C137.651 136.422 130.661 141.429 125.187 147.502C122.575 150.401 119.744 152.991 116.804 155.539C115.779 156.427 114.894 157.116 114.345 158.383C113.524 160.279 116.74 158.849 117.209 157.766C117.934 156.093 121.192 154.919 122.567 153.635C124.53 151.801 125.988 149.44 127.834 147.492C131.333 143.798 135.073 140.664 138.062 136.502C140.05 133.735 150.103 119.945 141.639 118.317C139.495 117.905 137.571 119.504 136.051 120.745C132.22 123.872 128.922 127.404 125.587 131.039C122.542 134.358 120.902 137.814 118.782 141.759C116.409 146.173 113.821 150.103 113.342 155.191C113.184 156.864 116.312 155.094 116.424 153.919" fill="black"/>
<path d="M120.664 158.204C122.718 154.012 125.219 150.072 128.258 146.568C129.655 144.958 130.558 142.686 132.912 142.631C134.162 141.97 134.742 142.237 134.652 143.434C135.019 144.196 134.906 144.903 134.315 145.551C133.882 146.731 133.053 147.798 132.317 148.799C130.494 151.277 129.353 153.607 128.027 156.403C126.923 158.73 125.64 160.753 124.082 162.807C123.342 163.786 122.748 165.531 121.893 166.323C120.059 168.02 122.517 168.268 123.779 167.099C128.106 163.094 129.825 157.002 132.597 151.972C134.172 149.116 140.166 143.94 137.338 140.135C132.03 132.985 119.233 155.896 117.8 158.821C116.899 160.659 120.15 159.252 120.664 158.204Z" fill="black"/>
<path d="M117.044 159.717C111.826 160.595 106.773 162.181 102.245 165.093C100.144 166.442 96.7753 168.991 96.6678 171.778C96.5281 175.366 100.705 175.257 103.153 174.47C106.318 173.453 109.443 171.814 112.45 170.429C115.264 169.13 118.131 168.364 121.033 167.307C122.322 166.838 123.76 164.064 121.491 164.889C118.53 165.968 115.772 166.662 112.908 168.011C110.254 169.26 104.489 172.994 101.538 171.851C97.3574 170.23 102.364 167.146 104.567 166.054C108.263 164.223 111.785 163.057 115.819 162.378C116.981 162.182 119.092 159.373 117.044 159.718" fill="black"/>
</g>
<defs>
<clipPath id="clip0">
<rect width="110.395" height="182.724" fill="white" transform="translate(0 44.4248) rotate(-23.7291)"/>
</clipPath>
</defs>
</svg>
