<svg width="134" height="224" viewBox="0 0 134 224" fill="none" xmlns="http://www.w3.org/2000/svg">
<g clip-path="url(#clip0)">
<path d="M16.2331 156.115C16.3741 143.978 18.5389 131.867 22.6085 120.437C23.3615 118.321 24.7993 115.821 27.0249 116.068C33.0134 125.529 31.6818 137.954 27.9751 148.527C26.8092 151.855 25.4105 155.379 26.2588 158.803C27.3402 163.168 31.6396 165.807 35.5651 167.976C43.1118 172.148 50.6584 176.318 58.2029 180.49C59.9094 181.433 61.8998 183.194 61.02 184.936C60.6527 185.664 59.8747 186.074 59.1325 186.405C52.2111 189.484 44.3665 189.631 36.8123 189.13C30.5615 188.717 24.0528 187.791 18.9278 184.171C13.8039 180.552 10.5945 173.491 13.1776 167.759C15.2894 163.073 16.1724 161.259 16.2331 156.115Z" fill="#B4C995"/>
<path d="M46.8094 146.515C48.0847 141.235 53.525 133.749 53.0948 128.976C52.6246 123.775 49.2625 119.385 46.5472 114.933C43.8298 110.481 41.6291 104.961 43.6542 100.153C49.6146 99.2036 53.3029 106.341 55.0365 112.146C55.9022 115.05 56.7701 117.955 57.6369 120.86C57.976 121.997 58.4582 123.289 59.5775 123.672C60.6642 124.042 61.803 123.365 62.7522 122.715C67.0558 119.773 71.4722 116.686 74.2265 112.248C75.9222 109.516 76.9006 106.403 78.3655 103.539C84.3812 91.778 97.4721 85.8146 109.615 80.7021C112.288 79.576 115.638 78.5358 117.849 80.4171C119.127 81.5018 119.593 83.2916 119.615 84.9715C119.712 92.8279 112.213 98.3365 105.535 102.431C105.522 102.437 105.516 102.443 105.504 102.449C96.8433 107.75 87.199 111.304 78.6664 116.838C75.3692 118.975 54.5279 136.107 68.9971 135.473C78.351 135.064 87.705 134.655 97.0589 134.246C99.2498 137.667 97.7036 142.479 94.7001 145.207C91.6956 147.935 87.6313 149.088 83.722 150.158C79.6903 151.26 75.6586 152.365 71.6257 153.468C69.0036 154.185 66.2298 154.905 63.6001 154.186C62.4765 153.877 46.7007 149.937 47.043 150.514C46.4189 149.463 46.4298 148.087 46.809 146.516" fill="#759161"/>
<path d="M122.681 60.8046C118.629 66.213 113.339 70.4932 107.587 73.953C101.876 77.389 94.6401 78.9405 89.2334 82.6158C83.9069 86.2366 80.8048 89.3418 73.8097 89.7346C67.508 90.0892 61.1716 88.5715 55.1711 86.7991C49.3613 85.0823 43.7878 82.557 38.6693 79.305C36.7937 78.1147 26.4874 67.8787 25.4255 68.0593C40.9262 65.4275 55.7876 74.0825 69.9242 80.9881C70.6718 81.3526 71.4595 81.7225 72.2895 81.6996C73.2614 81.6688 74.1304 81.1132 74.9224 80.5474C77.0591 79.0253 79.0614 77.315 80.9023 75.4436C84.3587 71.9272 87.2246 67.8602 90.7178 64.3819C100.387 54.7552 113.959 50.4315 126.972 46.4287C128.153 51.4607 125.769 56.6712 122.681 60.8046Z" fill="#B4C995"/>
<path d="M60.5973 43.9686C61.0372 37.6756 61.8314 31.4076 62.9799 25.2049C64.1772 18.7356 66.4504 10.3134 69.961 4.71233C70.234 4.27602 70.5547 3.82778 71.0326 3.64283C72.3317 3.14126 73.3654 4.79718 73.7869 6.13C76.3125 14.0855 78.8382 22.042 81.3638 29.9975C84.3934 39.5382 89.8781 54.668 82.08 62.8803C79.7873 65.2935 76.8629 67.3433 73.5517 67.6055C68.6174 67.9961 64.0959 64.1978 62.1261 59.6369C60.1552 55.0771 60.2159 49.9178 60.5323 44.9576C60.5538 44.6268 60.5756 44.2983 60.5974 43.9686" fill="#759161"/>
<path d="M76.3514 64.2644C76.1791 64.1882 76.0058 64.1121 75.8335 64.035C75.2007 63.7565 74.4033 64.0338 74.1216 64.6845C73.6936 65.6702 74.2343 66.0597 74.4066 67.0259C74.9137 69.895 75.9171 72.3277 76.1229 75.2653C76.3158 78.0267 76.4294 80.7978 76.4251 83.5668C76.4128 92.6538 75.2148 101.771 72.3674 110.416C66.8935 127.04 53.64 140.073 38.8588 148.852C31.2883 153.351 23.2876 156.979 15.8472 161.724C7.91481 166.783 0.361689 172.415 -7.30957 177.856C-17.6311 185.18 -30.6364 195.692 -27.5333 210.12C-25.0217 221.802 -12.4031 227.911 -2.23654 221.249C-0.840971 220.334 -2.33946 218.217 -3.73398 219.131C-12.8582 225.111 -23.7876 218.762 -25.2308 208.365C-26.7521 197.411 -17.7665 188.755 -9.83416 182.859C-1.85843 176.931 6.29826 171.102 14.5904 165.63C23.1674 159.969 32.4758 155.772 41.2263 150.444C55.4473 141.785 68.3443 129.081 74.1303 113.193C76.9701 105.393 78.4318 97.1516 78.8576 88.8708C79.0766 84.6004 79.0016 80.3387 78.7645 76.0705C78.6389 73.7868 78.5056 71.5357 77.953 69.3063C78.0743 69.7971 76.6246 65.42 76.4794 65.754C75.9084 65.9717 75.3385 66.1881 74.7675 66.4036C74.9407 66.4797 75.1131 66.5568 75.2865 66.6321C76.8088 67.3045 77.8826 64.9391 76.3516 64.2646" fill="black"/>
<path d="M75.9646 66.0433C69.0237 64.0784 62.6548 56.4874 61.9668 49.1978C61.3492 42.6578 63.6657 35.4737 65.4838 29.2742C68.2045 19.9968 69.8536 10.7781 69.339 1.12866C68.5577 1.41795 67.7755 1.70637 66.9953 1.9947C68.4992 3.62779 68.9402 6.52189 69.7876 8.52816C70.8722 11.0926 72.0629 13.6091 73.1128 16.1877C75.4922 22.027 77.7621 28.1003 79.5423 34.1539C81.2305 39.8997 81.8492 45.4833 81.2088 51.4641C80.8849 54.4833 80.212 57.5971 79.0526 60.4096C78.9129 60.7502 75.6027 65.5776 76.073 66.1804C75.0491 64.8682 72.9341 66.3642 73.9623 67.6851C74.075 67.8298 74.1877 67.9735 74.3004 68.1182C74.6882 68.6175 75.2127 68.7263 75.7967 68.5882C79.1523 67.7939 81.0691 62.4572 81.9868 59.7057C84.0086 53.6357 84.5948 46.8781 83.6825 40.534C82.6423 33.2977 79.6702 26.2594 77.1489 19.455C75.6613 15.4381 73.8854 11.58 72.22 7.64036C71.2709 5.39365 70.7919 2.32003 69.1049 0.491094C68.2695 -0.415201 66.6876 -0.0333322 66.7613 1.35822C67.5674 16.4586 61.1292 29.5724 59.4801 44.3137C58.2969 54.8924 65.2791 65.7028 75.5323 68.6045C77.1348 69.0582 77.5542 66.4927 75.9646 66.0433Z" fill="black"/>
<path d="M70.1602 5.16165C70.093 5.10521 70.0281 5.04848 69.9618 4.99297C69.1709 4.3206 68.0971 4.86898 67.8674 5.78178C66.643 10.6506 69.2705 16.6607 70.0095 21.4849C70.8839 27.1882 70.964 32.3138 70.4115 38.065C69.8794 43.6062 70.5426 48.8004 70.8806 54.347C71.1614 58.9961 71.0584 64.212 73.9264 68.1309C74.5429 68.9731 76.1627 68.7685 76.257 67.5978C76.2693 67.4476 76.2815 67.2986 76.2926 67.1506C76.4247 65.4936 73.8742 65.0454 73.741 66.7143C73.7287 66.8645 73.7195 67.0135 73.7054 67.1615C74.4822 66.9829 75.2602 66.8057 76.036 66.6273C72.9263 62.3787 73.585 55.2968 73.1451 50.3747C72.6641 44.9815 72.9218 39.9005 73.2588 34.5312C73.5143 30.4555 73.3792 27.0153 72.8319 22.9766C72.1525 17.9674 69.1675 11.1913 70.4189 6.21805C69.72 6.4802 69.0233 6.74355 68.3245 7.00576C68.3905 7.0622 68.4566 7.11894 68.5226 7.17538C69.7936 8.25359 71.4329 6.24297 70.1598 5.16146" fill="black"/>
<path d="M80.34 79.1203C81.7063 76.904 82.4831 74.4614 84.2092 72.404C85.8767 70.4163 87.9581 68.8267 89.9355 67.1718C93.8275 63.9154 97.7249 60.6405 101.797 57.6094C111.223 50.5884 121.5 49.5005 132.845 49.3786C132.563 48.5942 132.27 47.8086 131.989 47.0242C128.554 49.8758 123.776 50.8267 120.276 53.8035C115.79 57.6148 112.595 62.6838 108.283 66.6887C101.065 73.393 88.9257 85.941 78.9325 77.4893C78.6074 77.2142 78.0722 77.0977 77.6724 77.2738C77.5759 77.3163 77.4795 77.3585 77.3843 77.4011C75.8652 78.0735 76.7418 80.5193 78.2674 79.8448C78.3822 79.7936 85.3568 83.161 87.0601 83.1512C92.8265 83.1155 98.0739 78.8046 102.338 75.3796C107.728 71.0493 112.534 66.2447 117.004 60.9853C119.572 57.9596 122.226 55.2102 125.672 53.2072C128.142 51.7765 131.285 50.9681 133.484 49.1435C134.492 48.3047 133.928 46.776 132.617 46.7901C120.84 46.9175 110.046 48.2318 100.298 55.4898C95.4302 59.1161 90.6952 63.0145 86.1152 67.0009C82.259 70.3585 80.5579 73.8684 77.9824 78.0485C77.1102 79.4661 79.4744 80.5259 80.3401 79.1202" fill="black"/>
<path d="M81.1982 80.3331C81.3714 79.8294 85.7414 78.8034 86.425 78.5096C88.2692 77.7186 90.2206 77.0375 91.965 76.0387C95.9328 73.7648 99.9624 70.7217 103.191 67.4685C106.806 63.8281 109.997 60.0788 113.948 56.7811C116.278 54.8401 118.304 53.3713 121.24 52.3921C123.787 51.5413 126.485 51.2584 128.944 50.1312C128.543 49.3707 128.153 48.6113 127.752 47.8497C127.579 47.9706 127.406 48.089 127.232 48.2087C125.867 49.1574 127.362 51.2779 128.727 50.3281C128.901 50.2085 129.074 50.0888 129.247 49.9702C130.418 49.1574 129.41 47.0674 128.056 47.6886C123.277 49.882 118.217 49.9093 113.948 53.2962C110.268 56.2186 107.068 59.3281 103.927 62.8217C99.7218 67.5001 94.3108 72.1513 88.5595 74.7875C86.0891 75.9202 83.4378 76.5926 80.9771 77.6436C79.6791 78.1995 79.3161 77.882 78.8405 79.2625C78.3009 80.8303 80.6532 81.9183 81.1982 80.3331Z" fill="black"/>
<path d="M77.5551 88.8576C71.5709 80.4354 63.2972 73 53.759 68.9352C43.6922 64.6452 33.5787 67.1727 23.0925 68.5708C21.633 68.7666 21.5355 70.836 22.9896 71.146C34.6178 73.6267 40.9953 85.586 51.215 90.7236C59.4638 94.87 68.912 95.315 77.047 91.2545C78.5086 90.5256 77.7838 88.2788 76.1639 88.8119C67.6789 91.5983 55.1752 82.68 48.0371 78.9198C44.0411 76.8135 39.9844 74.8898 35.8942 72.9728C33.1052 71.6672 29.6196 69.328 26.4753 70.3235C24.8836 70.8272 25.7742 73.2687 27.3583 72.7672C30.7724 71.6846 38.6474 77.1039 41.8231 78.5967C46.1464 80.6302 50.6581 82.8954 54.8025 85.2476C60.7012 88.5965 70.028 93.56 77.047 91.2545C76.7533 90.4407 76.4575 89.6258 76.1639 88.8119C65.3342 94.2161 53.8869 90.4755 44.9252 83.1946C38.1772 77.7132 32.3522 70.4889 23.4241 68.5849C23.3906 69.4433 23.3547 70.3017 23.3212 71.1602C33.141 69.8502 43.2588 67.2836 52.6929 71.3039C61.7598 75.1674 69.7539 82.3515 75.4445 90.3614C76.411 91.7225 78.5228 90.2211 77.5552 88.8578" fill="black"/>
<path d="M74.8344 111.681C74.7444 107.674 79.9615 102.714 82.5598 100.244C86.3402 96.6488 90.8421 93.3173 95.3495 90.6974C104.499 85.3771 115.887 77.0332 126.961 77.5151C126.788 76.734 126.603 75.9539 126.43 75.1749C122.789 78.3573 119.712 80.8901 116.722 84.845C114.024 88.4224 111.11 92.0215 108.036 95.2833C104.07 99.4939 99.8775 103.171 94.9541 106.23C89.9006 109.368 80.6127 114.04 74.4096 110.868C74.2708 111.695 74.1311 112.521 73.9914 113.347C74.4985 113.278 75.0045 113.209 75.5116 113.139C77.1607 112.914 76.9364 110.325 75.284 110.55C74.7769 110.62 74.2698 110.688 73.7627 110.758C72.4679 110.936 72.1765 112.639 73.3434 113.237C76.9439 115.078 82.3636 114.344 86.131 113.346C92.2777 111.715 98.3465 107.454 103.235 103.539C107.374 100.225 111.092 96.1039 114.338 91.9205C118.596 86.4316 122.714 81.8511 127.925 77.2934C128.651 76.6558 128.64 75.0075 127.394 74.9531C115.346 74.4287 102.807 83.1066 92.9734 89.1135C87.6934 92.3383 82.2748 96.3052 78.1856 100.998C75.8539 103.675 72.1721 108.134 72.2566 111.91C72.2935 113.586 74.8712 113.347 74.8343 111.681" fill="black"/>
<path d="M75.3515 111.769C75.2876 111.1 87.7003 105.925 89.5022 104.779C93.0019 102.551 96.4745 99.9967 99.7457 97.4552C107.441 91.4809 112.625 82.5985 122.356 79.4487C121.782 79.0799 121.208 78.7121 120.623 78.3422C120.635 78.4902 120.644 78.6383 120.655 78.7861C120.785 80.4584 123.353 80.2245 123.234 78.5576C123.222 78.4086 123.213 78.2606 123.201 78.1137C123.147 77.2498 122.259 76.7547 121.479 77.0061C112.073 80.0481 107.096 87.8252 99.9786 93.9768C91.8599 100.991 82.1787 104.77 73.2777 110.446C72.9006 110.687 72.6958 111.184 72.7381 111.621C72.7504 111.747 72.7627 111.872 72.7737 111.998C72.9319 113.665 75.5096 113.436 75.3514 111.769" fill="black"/>
<path d="M58.4431 131.93C45.9968 129.186 48.5225 114.5 46.6892 105.199C45.9784 101.594 45.1484 97.9076 44.1678 94.3618C42.9261 89.8683 40.2065 87.3312 38.1998 83.3034C37.6159 83.8452 37.0329 84.3881 36.45 84.9299C44.2664 88.2548 51.4436 97.8086 55.8232 104.801C58.3315 108.805 60.4053 113.262 60.9384 117.975C61.3696 121.799 61.6134 128.964 58.649 131.83C57.4528 132.985 59.4648 134.621 60.6534 133.473C67.148 127.197 63.2961 113.543 59.8635 106.817C57.3758 101.942 53.9422 97.3549 50.2604 93.3174C46.7834 89.5028 42.3194 84.6057 37.5162 82.5635C36.5887 82.1686 35.2408 83.1336 35.7663 84.1901C36.7675 86.2007 38.2497 87.6804 39.4448 89.5561C41.1448 92.225 41.7354 95.3682 42.4364 98.394C43.806 104.306 44.3185 109.513 44.7129 115.506C45.2427 123.536 49.5594 132.628 58.0107 134.491C59.6404 134.85 60.0673 132.287 58.4431 131.93Z" fill="black"/>
<path d="M39.6444 85.995C38.9087 88.4768 43.6729 92.8691 44.8918 94.8079C48.5064 100.562 50.8879 106.606 52.3702 113.191C53.5068 118.237 53.6379 131.76 60.9462 132.855C62.5931 133.102 63.0298 130.541 61.3785 130.294C57.0055 129.638 56.947 121.825 56.3976 118.947C55.7009 115.293 54.937 111.328 53.9109 107.758C52.8957 104.223 51.07 100.755 49.3992 97.492C48.6657 96.0591 47.8617 94.6665 47.0025 93.3054C46.3925 92.3392 41.9208 87.3551 42.195 86.4292C42.6685 84.8287 40.1125 84.4087 39.6444 85.995Z" fill="black"/>
<path d="M48.5043 147.152C55.6164 137.63 66.3367 136.462 77.4372 136.707C86.1421 136.901 95.5026 139.603 103.953 136.413C103.556 135.652 103.16 134.892 102.762 134.133C98.2764 137.134 94.003 140.397 89.7611 143.732C85.2732 147.263 80.4115 149.195 75.1543 151.258C64.901 155.283 52.9489 153.392 45.1313 145.313C43.9752 144.118 42.3445 146.138 43.4941 147.327C50.771 154.846 61.3363 157.268 71.3295 155.154C84.4714 152.375 93.4645 143.473 104.261 136.251C105.477 135.436 104.433 133.456 103.071 133.97C97.194 136.189 91.1772 135.051 85.1443 134.464C80.0214 133.967 74.6765 133.859 69.545 134.176C60.229 134.75 52.1579 137.931 46.4998 145.508C45.504 146.84 47.502 148.494 48.5043 147.152" fill="black"/>
<path d="M46.5819 147.448C55.7885 146.907 64.4143 148.511 73.6437 147.149C81.9726 145.92 90.4338 143.339 97.3552 138.411C98.7128 137.444 97.2176 135.323 95.8567 136.291C88.2797 141.688 78.838 143.791 69.8005 145.091C61.9493 146.222 54.2185 144.398 46.3544 144.86C44.6869 144.958 44.922 147.546 46.582 147.448" fill="black"/>
<path d="M23.4685 156.398C17.4605 155.885 17.1246 143.977 17.6295 139.546C18.1279 135.167 20.0782 131.238 21.3286 127.062C23.8326 118.702 24.37 110.873 25.1567 102.295C24.3809 102.473 23.604 102.65 22.8271 102.83C28.5686 109.373 31.4377 120.878 32.5993 129.182C33.8897 138.418 30.7107 151.968 22.4457 157.594C23.0882 158.128 23.7318 158.659 24.3744 159.19C24.4643 158.965 24.5552 158.741 24.6452 158.517C25.2672 156.971 22.9127 155.891 22.2875 157.447C22.1966 157.672 22.1066 157.896 22.0157 158.12C21.5379 159.309 22.8609 160.452 23.9433 159.715C28.3261 156.731 29.843 152.955 32.0263 148.237C34.3732 143.166 35.8933 138.805 35.6094 133.049C35.333 127.423 34.2973 121.542 32.2083 116.305C30.2959 111.506 28.3922 105.264 24.9369 101.326C24.2727 100.568 22.719 100.624 22.6063 101.86C22.0114 108.337 21.9518 114.397 20.2973 120.746C18.7901 126.524 16.1258 132.221 15.2265 138.132C14.3466 143.928 14.6522 158.244 23.0342 158.959C24.6844 159.099 25.1308 156.539 23.4687 156.398" fill="black"/>
<path d="M24.0202 104.754C24.5674 116.01 27.209 127.999 24.4081 139.121C22.7059 145.88 17.1637 152.772 20.8997 159.812C21.6798 161.282 23.784 159.765 23.0104 158.307C20.216 153.044 24.5359 147.893 26.1189 143.025C27.1743 139.782 27.7085 136.398 27.9512 133.006C28.6305 123.464 27.0594 114.038 26.5979 104.525C26.5155 102.85 23.9379 103.087 24.0202 104.754" fill="black"/>
<path d="M9.58776 169.704C15.0107 168.693 20.1119 167.668 25.6313 168.737C31.5657 169.885 37.2714 172.499 43.014 174.349C47.5431 175.808 52.2163 176.74 56.806 177.98C60.1931 178.896 64.1966 180.804 67.7841 180.202C69.4105 179.929 69.2371 177.481 67.5565 177.614C62.8379 177.985 58.1798 182.022 53.6042 183.465C47.1302 185.506 40.4157 187.411 33.5745 186.384C28.9262 185.689 25.1014 183.324 21.139 180.918C15.806 177.679 12.8534 173.822 10.6669 168.122C10.0829 168.665 9.49997 169.207 8.91703 169.75C14.3801 171.443 19.0771 175.217 24.4524 177.21C28.8677 178.848 33.7294 179.942 38.409 180.44C42.9273 180.919 47.6113 181.043 52.1458 180.994C55.9922 180.953 60.5776 181.742 64.2172 180.224C65.7525 179.584 64.8749 177.139 63.3352 177.781C59.9113 179.209 54.9965 178.444 51.4003 178.373C46.8431 178.283 41.8969 178.389 37.3895 177.702C32.933 177.022 27.9261 175.886 23.7654 174.119C19.0976 172.137 14.8351 168.885 9.98429 167.382C8.99178 167.074 7.79558 167.866 8.23439 169.01C10.2421 174.244 11.2227 176.877 15.9371 180.521C19.9342 183.611 24.9031 186.859 29.754 188.289C34.8605 189.796 40.7018 189.521 45.8062 188.302C49.3698 187.451 52.9194 186.467 56.391 185.287C59.7705 184.137 64.371 180.471 67.7841 180.202C67.7094 179.34 67.6336 178.477 67.5565 177.614C63.4652 178.3 58.1679 175.651 54.2206 174.646C48.1931 173.112 42.302 171.427 36.4219 169.381C32.1257 167.886 27.8632 166.237 23.307 165.736C18.5884 165.216 13.9769 166.254 9.35906 167.115C7.73271 167.42 7.95043 170.01 9.58753 169.704" fill="black"/>
</g>
<defs>
<clipPath id="clip0">
<rect width="162" height="224" fill="white" transform="translate(-28)"/>
</clipPath>
</defs>
</svg>
