<svg width="1129" height="609" viewBox="0 0 1129 609" fill="none" xmlns="http://www.w3.org/2000/svg">
<g clip-path="url(#clip0)">
<path fill-rule="evenodd" clip-rule="evenodd" d="M11.2951 24.8435C14.2723 27.0003 18.3739 24.7631 20.6804 23.6689C22.0273 23.9475 23.2565 23.6424 24.4612 23.2161C25.4726 25.1123 28.1254 24.9437 29.4518 23.8167C30.4368 24.8794 31.9379 26.1366 31.8431 27.2366C31.4279 26.9249 31.0372 26.7332 30.6978 26.7953C29.0462 27.7141 31.207 29.2311 32.1521 28.4796C34.0254 26.3759 31.193 24.7806 30.1301 23.1054C30.4586 22.7333 30.4656 22.4289 30.742 22.0678C32.5971 23.218 34.2267 23.2499 35.7326 22.6684C36.4543 21.788 36.7996 20.8635 36.2839 20.1651C35.7706 19.4693 34.4264 19.0261 33.9691 19.7416C33.2298 20.8979 35.3537 20.9976 35.4224 21.7099C34.1534 22.6926 32.5257 21.8922 30.9257 21.2333C31.4941 19.7847 29.8941 18.0191 28.086 17.6226C28.5094 16.608 27.7272 15.6076 27.7171 14.6307C27.7091 13.8007 28.1253 12.8873 28.1794 11.9752C28.3592 8.90487 28.3435 5.52018 24.3937 3.67462C23.7124 3.35659 22.1048 3.58819 21.5587 3.872C19.6953 4.83773 19.6989 7.03645 19.8268 8.66938C18.1709 8.02545 16.7815 8.52949 15.2373 8.89411C14.0103 9.18476 13.0635 9.3692 12.239 10.3199C9.49674 13.4813 11.5222 16.4176 12.852 18.8888C11.7729 19.3063 10.1436 20.0302 9.66794 21.7179C9.35956 22.8108 10.2574 24.0919 11.2952 24.8435" fill="#422123"/>
<path fill-rule="evenodd" clip-rule="evenodd" d="M25.7633 22.4449C26.9069 21.7319 27.3177 20.1526 27.8875 19.0481C28.6629 19.2255 29.4589 19.8894 29.6231 20.436C30.1572 22.2072 26.5392 24.655 25.7633 22.4449Z" fill="#F79814"/>
<path fill-rule="evenodd" clip-rule="evenodd" d="M23.4022 22.0601C24.2447 20.5466 25.6264 19.262 26.6686 17.7914C26.9125 19.6143 24.8148 21.425 23.4022 22.0601Z" fill="#F79814"/>
<path fill-rule="evenodd" clip-rule="evenodd" d="M23.8128 7.4299C23.4673 7.71552 23.8234 8.19002 23.9205 8.54412C24.1734 9.46569 24.3518 10.4545 24.8757 11.2433C24.8501 11.28 24.8784 11.3537 24.943 11.286C24.8296 9.9821 24.5689 8.40969 23.8127 7.42986L23.8128 7.4299ZM26.0704 15.7118C25.8724 14.9384 25.9788 14.1011 25.4284 13.4016C25.2448 14.1418 25.5199 15.2777 25.4605 16.1813C23.0696 14.2874 21.1184 11.0381 20.7489 8.24329C20.6167 7.23743 20.8915 5.85235 22.0257 4.67753C23.0009 4.54685 24.1664 4.70547 25.1707 5.72305C26.7911 7.36662 27.0854 10.8535 26.733 13.4689C26.6067 14.4017 26.7487 15.0966 26.0704 15.7118Z" fill="#FFFBF6"/>
<path fill-rule="evenodd" clip-rule="evenodd" d="M24.9313 17.1497C24.1596 17.9376 23.4081 18.8309 22.6683 19.7861C22.4081 19.7328 22.1684 19.7875 21.8957 19.6737C22.6152 18.6149 23.3349 17.5557 24.0543 16.4969C24.213 16.7441 24.615 16.9374 24.9313 17.1497" fill="#F79814"/>
<path fill-rule="evenodd" clip-rule="evenodd" d="M20.6634 22.3474C20.7278 22.39 20.6604 22.4618 20.6404 22.5225C19.3057 23.0874 17.7362 23.8619 15.9998 24.2364C14.9688 24.4583 13.3139 24.6273 12.2014 23.7267C11.2167 22.9295 11.208 21.3542 12.6679 20.2189C13.0709 19.9048 14.0056 19.6846 14.5368 19.5986C16.6427 19.258 19.5606 20.246 21.5937 20.5606C21.5773 21.8945 20.371 21.7104 19.4517 21.8628C17.8159 22.1344 15.5719 22.1097 14.0971 22.3627C16.2064 23.1272 18.5754 22.6584 20.6635 22.3475" fill="#FFFBF6"/>
<path fill-rule="evenodd" clip-rule="evenodd" d="M19.3233 18.7768C18.3887 18.6395 17.4632 18.5465 16.5319 18.4242C18.0345 16.0336 19.6809 14.3771 21.3343 12.756C21.7474 13.268 22.1074 13.7919 22.3387 14.3433C21.3337 15.8209 20.3283 17.2992 19.3233 18.7768Z" fill="#F79814"/>
<path fill-rule="evenodd" clip-rule="evenodd" d="M14.1181 17.6298C13.8763 17.3835 13.8018 17.0998 13.6221 16.8397C15.493 14.3834 17.2443 11.3017 19.3069 9.84482C19.8952 9.97131 20.2418 10.2604 20.3963 10.7284C18.1887 12.4287 16.0928 14.7114 14.1181 17.6298Z" fill="#F79814"/>
<path fill-rule="evenodd" clip-rule="evenodd" d="M15.7413 10.3084C14.6688 11.5841 13.9437 12.9984 12.9545 14.4108C12.7276 14.3724 12.6358 13.8072 12.6564 13.4634C12.7668 11.6218 14.1236 9.99869 15.7413 10.3084Z" fill="#F79814"/>
</g>
<g clip-path="url(#clip1)">
<path fill-rule="evenodd" clip-rule="evenodd" d="M1105.34 152.74C1108.67 151.184 1108.71 146.512 1108.87 143.964C1109.77 142.922 1110.1 141.699 1110.31 140.439C1112.46 140.475 1113.6 138.074 1113.26 136.367C1114.67 136.022 1116.49 135.32 1117.41 135.936C1116.94 136.148 1116.58 136.397 1116.47 136.723C1116.47 138.613 1118.84 137.46 1118.65 136.269C1117.72 133.61 1114.95 135.313 1112.97 135.429C1112.8 134.961 1112.54 134.807 1112.36 134.39C1114.26 133.327 1115.08 131.917 1115.3 130.318C1114.88 129.26 1114.24 128.509 1113.38 128.621C1112.53 128.732 1111.49 129.693 1111.89 130.44C1112.54 131.647 1113.66 129.839 1114.32 130.124C1114.56 131.711 1113.07 132.745 1111.72 133.825C1110.73 132.624 1108.41 133.166 1107.18 134.555C1106.5 133.692 1105.24 133.89 1104.39 133.425C1103.66 133.029 1103.06 132.222 1102.29 131.732C1099.69 130.085 1096.72 128.455 1093.19 131.013C1092.59 131.454 1092.01 132.972 1091.99 133.588C1091.93 135.685 1093.85 136.749 1095.34 137.43C1093.98 138.565 1093.74 140.025 1093.31 141.552C1092.97 142.766 1092.67 143.683 1093.1 144.865C1094.54 148.797 1098.09 148.452 1100.89 148.489C1100.73 149.635 1100.58 151.411 1101.82 152.646C1102.63 153.446 1104.18 153.282 1105.34 152.74" fill="#422123"/>
<path fill-rule="evenodd" clip-rule="evenodd" d="M1110.27 138.926C1110.2 137.58 1109.02 136.455 1108.33 135.42C1108.86 134.829 1109.83 134.455 1110.39 134.577C1112.19 134.969 1112.58 139.321 1110.27 138.926Z" fill="#F79814"/>
<path fill-rule="evenodd" clip-rule="evenodd" d="M1108.79 140.804C1107.87 139.332 1107.42 137.501 1106.64 135.876C1108.35 136.547 1108.92 139.26 1108.79 140.804Z" fill="#F79814"/>
<path fill-rule="evenodd" clip-rule="evenodd" d="M1096.2 133.344C1096.28 133.785 1096.86 133.703 1097.22 133.79C1098.15 134.017 1099.1 134.341 1100.05 134.265C1100.06 134.306 1100.14 134.317 1100.12 134.227C1098.92 133.694 1097.42 133.158 1096.2 133.344L1096.2 133.344ZM1104.53 135.39C1103.76 135.187 1103.08 134.688 1102.2 134.83C1102.76 135.35 1103.89 135.66 1104.65 136.151C1101.83 137.322 1098.04 137.451 1095.42 136.417C1094.48 136.045 1093.4 135.132 1092.92 133.57C1093.28 132.654 1093.98 131.712 1095.36 131.328C1097.59 130.709 1100.78 132.144 1102.89 133.722C1103.65 134.285 1104.32 134.498 1104.53 135.39Z" fill="#FFFBF6"/>
<path fill-rule="evenodd" clip-rule="evenodd" d="M1105.24 137.083C1105.55 138.14 1105.97 139.231 1106.44 140.341C1106.27 140.543 1106.2 140.779 1105.97 140.962C1105.39 139.819 1104.82 138.676 1104.24 137.533C1104.53 137.514 1104.9 137.257 1105.24 137.083" fill="#F79814"/>
<path fill-rule="evenodd" clip-rule="evenodd" d="M1107.71 143.338C1107.78 143.302 1107.81 143.396 1107.85 143.443C1107.7 144.884 1107.61 146.632 1107.1 148.332C1106.79 149.341 1106.14 150.87 1104.81 151.406C1103.63 151.88 1102.25 151.123 1101.97 149.295C1101.89 148.791 1102.15 147.866 1102.33 147.36C1103.06 145.354 1105.34 143.282 1106.6 141.657C1107.76 142.319 1107.01 143.284 1106.7 144.162C1106.14 145.724 1105.03 147.674 1104.54 149.086C1106.23 147.613 1106.97 145.314 1107.71 143.338" fill="#FFFBF6"/>
<path fill-rule="evenodd" clip-rule="evenodd" d="M1103.94 142.776C1103.36 143.527 1102.83 144.291 1102.27 145.046C1100.91 142.572 1100.26 140.328 1099.65 138.096C1100.3 137.983 1100.93 137.923 1101.52 137.988C1102.33 139.584 1103.13 141.181 1103.94 142.776Z" fill="#F79814"/>
<path fill-rule="evenodd" clip-rule="evenodd" d="M1100.41 146.771C1100.07 146.863 1099.79 146.79 1099.48 146.821C1098.24 143.993 1096.39 140.966 1096.12 138.456C1096.52 138.003 1096.94 137.84 1097.42 137.932C1097.84 140.687 1098.81 143.628 1100.41 146.771Z" fill="#F79814"/>
<path fill-rule="evenodd" clip-rule="evenodd" d="M1094.79 141.797C1095.39 143.354 1096.27 144.675 1097.03 146.225C1096.88 146.405 1096.35 146.211 1096.06 146.026C1094.5 145.036 1093.74 143.061 1094.79 141.797Z" fill="#F79814"/>
</g>
<g clip-path="url(#clip2)">
<path fill-rule="evenodd" clip-rule="evenodd" d="M72.3445 595.74C75.6752 594.184 75.71 589.512 75.8729 586.964C76.7702 585.922 77.1 584.699 77.312 583.439C79.4608 583.475 80.601 581.074 80.2594 579.367C81.6667 579.022 83.4945 578.32 84.4102 578.936C83.9361 579.148 83.5789 579.397 83.4684 579.723C83.4701 581.613 85.8452 580.46 85.6469 579.269C84.7169 576.61 81.9473 578.313 79.9668 578.429C79.8009 577.961 79.5382 577.807 79.3566 577.39C81.2626 576.327 82.0815 574.917 82.304 573.318C81.8845 572.26 81.2439 571.509 80.3829 571.621C79.5254 571.732 78.4856 572.693 78.8891 573.44C79.5413 574.647 80.6593 572.839 81.3154 573.124C81.5587 574.711 80.0688 575.745 78.7162 576.825C77.7256 575.624 75.4053 576.166 74.181 577.555C73.4994 576.692 72.2451 576.89 71.3861 576.425C70.6566 576.029 70.06 575.222 69.2887 574.732C66.6916 573.085 63.7247 571.455 60.194 574.013C59.5853 574.454 59.0075 575.972 58.9906 576.588C58.9305 578.685 60.8546 579.749 62.3444 580.43C60.9776 581.565 60.7439 583.025 60.3132 584.552C59.9718 585.766 59.6735 586.683 60.1045 587.865C61.5375 591.797 65.0879 591.452 67.8939 591.489C67.7351 592.635 67.5772 594.411 68.822 595.646C69.6278 596.446 71.1837 596.282 72.3445 595.74" fill="#422123"/>
<path fill-rule="evenodd" clip-rule="evenodd" d="M77.2699 581.926C77.2015 580.58 76.0202 579.455 75.3311 578.42C75.8625 577.829 76.8293 577.455 77.3869 577.577C79.1947 577.969 79.5788 582.321 77.2699 581.926Z" fill="#F79814"/>
<path fill-rule="evenodd" clip-rule="evenodd" d="M75.7875 583.804C74.8733 582.332 74.4207 580.501 73.6408 578.876C75.353 579.547 75.9179 582.26 75.7875 583.804Z" fill="#F79814"/>
<path fill-rule="evenodd" clip-rule="evenodd" d="M63.1952 576.344C63.2772 576.785 63.8649 576.703 64.2217 576.79C65.1501 577.017 66.1012 577.341 67.0452 577.265C67.0649 577.306 67.143 577.317 67.1152 577.227C65.9201 576.694 64.4189 576.158 63.1951 576.344L63.1952 576.344ZM71.5319 578.39C70.7596 578.187 70.0792 577.688 69.2005 577.83C69.7585 578.35 70.8852 578.66 71.6464 579.151C68.8301 580.322 65.0421 580.451 62.4192 579.417C61.4756 579.045 60.398 578.132 59.9214 576.57C60.2805 575.654 60.9848 574.712 62.362 574.328C64.5854 573.709 67.7769 575.144 69.8926 576.722C70.6467 577.285 71.3233 577.498 71.5319 578.39Z" fill="#FFFBF6"/>
<path fill-rule="evenodd" clip-rule="evenodd" d="M72.2362 580.083C72.5505 581.14 72.9669 582.231 73.4428 583.341C73.27 583.543 73.2014 583.779 72.9696 583.962C72.3931 582.819 71.8163 581.676 71.2398 580.533C71.533 580.514 71.8971 580.257 72.2363 580.083" fill="#F79814"/>
<path fill-rule="evenodd" clip-rule="evenodd" d="M74.7094 586.338C74.7778 586.302 74.8079 586.396 74.8513 586.443C74.6973 587.884 74.6127 589.632 74.0974 591.332C73.7909 592.341 73.1355 593.87 71.8081 594.406C70.6331 594.88 69.2517 594.123 68.9676 592.295C68.8886 591.791 69.1497 590.866 69.3324 590.36C70.0568 588.354 72.3368 586.282 73.5987 584.657C74.7569 585.319 74.0105 586.284 73.6975 587.162C73.1411 588.724 72.0303 590.674 71.5356 592.086C73.2279 590.613 73.9678 588.314 74.7094 586.338" fill="#FFFBF6"/>
<path fill-rule="evenodd" clip-rule="evenodd" d="M70.9368 585.776C70.3632 586.527 69.8326 587.291 69.2737 588.046C67.9129 585.572 67.2637 583.328 66.6489 581.096C67.297 580.983 67.9298 580.923 68.5242 580.988C69.3282 582.584 70.1327 584.181 70.9368 585.776Z" fill="#F79814"/>
<path fill-rule="evenodd" clip-rule="evenodd" d="M67.4076 589.771C67.0749 589.863 66.7907 589.79 66.4761 589.821C65.2366 586.993 63.3923 583.966 63.1196 581.456C63.5158 581.003 63.9367 580.84 64.4209 580.932C64.8361 583.687 65.8145 586.628 67.4076 589.771Z" fill="#F79814"/>
<path fill-rule="evenodd" clip-rule="evenodd" d="M61.7945 584.797C62.3893 586.354 63.2738 587.675 64.0286 589.225C63.8849 589.405 63.3462 589.211 63.0556 589.026C61.4991 588.036 60.7385 586.061 61.7945 584.797Z" fill="#F79814"/>
</g>
<defs>
<clipPath id="clip0">
<rect width="34.2231" height="28.4873" fill="white" transform="translate(41.2886 13.4775) rotate(118.236)"/>
</clipPath>
<clipPath id="clip1">
<rect width="34.2231" height="28.4873" fill="white" transform="translate(1109.96 121) rotate(57.2724)"/>
</clipPath>
<clipPath id="clip2">
<rect width="34.2231" height="28.4873" fill="white" transform="translate(76.9651 564) rotate(57.2724)"/>
</clipPath>
</defs>
</svg>
