<svg width="146" height="338" viewBox="0 0 146 338" fill="none" xmlns="http://www.w3.org/2000/svg">
<path d="M67.9668 210.63C63.895 211.122 59.7859 215.3 55.6815 216.29C49.2803 217.836 44.1774 211.424 40.622 204.009C38.8394 200.291 37.229 195.893 37.5314 190.57C37.8341 185.248 40.844 179.114 43.9761 179.19C45.3571 179.224 46.481 180.397 47.5649 181.499C51.001 184.994 54.8718 188.144 59.3513 187.246C63.1334 186.488 66.8391 182.947 70.4886 179.901C83.328 169.178 101.108 180.241 98.3926 206.315C95.3644 235.402 75.3172 209.743 67.9668 210.63Z" fill="#759161"/>
<path d="M59.5918 140.4C52.2647 131.58 44.9132 122.728 38.592 112.074C35.6326 107.088 32.8595 101.576 31.5691 94.6156C30.277 87.6568 30.6728 78.969 33.6039 71.838C34.7329 69.091 36.2744 66.5766 38.0798 65.3803C40.8983 63.5154 43.6639 65.2263 45.7731 67.6136C52.5467 75.2831 56.0182 89.812 64.0932 94.0859C65.6649 94.9166 67.3731 95.3265 68.8202 96.5194C70.3215 97.757 71.468 99.7779 72.5898 101.777C75.966 107.798 79.4308 114.306 80.0233 123.106C80.5094 130.31 77.5687 143.49 72.4981 147.216C67.3693 150.984 62.8873 144.368 59.5918 140.4Z" fill="#B4C995"/>
<path d="M89.3632 70.2527C89.0782 65.5843 89.239 60.5246 90.577 55.7695C91.9158 51.0135 94.6353 46.6584 97.5939 45.7394C100.107 44.9595 102.346 46.7022 104.052 49.0817C107.424 53.7866 109.306 61.1881 109.189 69.2765C109.07 77.4023 107.036 85.8863 106.839 94.0349C106.495 108.307 120.484 151.097 98.7528 142.68C90.9501 139.656 90.73 130.944 92.099 118.028C94.0765 99.3645 90.4128 87.466 89.3632 70.2527Z" fill="#759161"/>
<path d="M49.5726 110.745C87.6256 152.398 122.161 202.531 144.192 269.428C144.575 270.591 146.99 267.019 146.512 265.566C124.48 198.67 89.9451 148.536 51.8912 106.883C51.0827 105.996 48.8503 109.954 49.5726 110.745Z" fill="black"/>
<path d="M112.75 195.032C109.749 179.567 107.758 162.277 105.763 146.025C104.789 138.089 104.121 130.037 103.891 121.696C103.681 114.105 102.746 106.186 103.453 98.3253C103.646 96.1749 101.142 99.333 101.003 100.877C100.364 107.986 101.192 114.756 101.366 121.606C101.574 129.858 102.008 137.875 102.892 145.787C104.843 163.28 107.088 181.802 110.294 198.328C110.609 199.949 113.025 196.451 112.75 195.032" fill="black"/>
<path d="M128.968 221.22C123.228 211.26 115.026 207.172 106.47 204.696C101.614 203.292 96.6287 202.539 91.6134 201.959C86.4002 201.357 80.4282 202.106 75.7699 199.125C75.0085 198.637 73.004 202.423 73.9371 203.02C78.2814 205.801 83.8294 205.192 88.7047 205.733C93.3637 206.25 98.0062 206.881 102.548 208.028C111.688 210.338 120.712 214.261 126.823 224.867C127.407 225.88 129.57 222.265 128.968 221.22Z" fill="black"/>
<path d="M81.27 139.753C77.9237 150.585 68.5056 151.982 63.5095 150.492C59.1191 149.183 56.2632 145.603 54.3607 139.272C53.261 135.613 53.2273 129.727 51.3428 127.096C49.5256 124.557 46.4339 125.115 44.0114 124.675C39.9174 123.927 36.8235 121.801 33.7913 117.917C32.4822 116.243 31.172 114.657 30.2248 112.343C28.2152 107.433 29.2463 105.271 30.023 99.4925C30.4457 96.3421 30.6432 95.1257 30.1267 92.1759C29.8383 90.5271 29.3455 89.135 28.8747 87.6399C27.3919 82.9277 25.8633 81.348 28.0229 75.3554C32.7831 62.1491 42.926 71.198 47.3023 77.218C51.572 83.091 53.0862 92.9195 58.2786 97.1244C60.3886 98.8336 62.4753 98.5837 64.903 99.1859C68.5294 100.083 72.0527 102.673 74.5995 106.433C76.953 109.906 78.4759 114.698 79.9599 119.345C80.6815 121.607 81.5077 123.845 82.0123 126.326C82.8272 128.644 83.0329 131.368 82.6288 134.497C82.2234 136.062 81.9525 137.637 81.817 139.222C81.2504 138.167 79.0198 141.831 79.6198 142.948C79.6651 143.033 79.7113 143.118 79.7567 143.203C80.0311 143.715 80.7206 142.883 80.9989 142.538C91.5865 129.383 79.4538 103.246 72.979 98.3998C69.8534 96.0592 66.6278 95.8276 63.2398 94.8422C59.1371 93.6452 56.8123 89.1363 54.6198 84.0297C52.7585 79.6943 50.9591 74.9739 48.2523 71.9884C45.9708 69.4746 42.8458 65.2195 40.1397 63.9265C37.8096 62.8132 34.8401 65.6725 32.3885 66.6096C29.8819 67.5684 28.4348 67.9306 26.4918 71.4881C21.7132 80.24 25.5164 85.3568 27.1053 92.7372C28.2429 98.0169 26.8429 101.889 26.471 107.165C26.0321 113.393 28.5777 117.726 30.9996 120.943C33.2792 123.974 35.4673 126.457 38.4586 127.72C43.3878 129.802 48.343 127.146 50.5253 135.827C53.6107 148.103 57.5039 156.588 67.1998 155.17C72.8923 154.337 80.1933 148.732 83.1602 139.132C84.0718 136.183 81.7936 138.058 81.27 139.753Z" fill="black"/>
<path d="M104.187 153.343C97.8471 154.628 91.2028 141.964 90.2437 133.218C89.1336 123.09 92.3697 110.805 90.8321 100.829C90.2055 96.7598 88.7974 93.0234 87.8725 89.2001C86.2273 82.3996 87.4096 77.8795 89.3873 69.8566C90.3577 65.9228 91.0866 62.498 91.5344 58.4614C92.1538 52.8818 91.2235 47.354 93.7594 42.6236C98.5254 33.7292 104.62 46.4981 106.6 52.3237C110.097 62.6195 107.15 73.783 105.845 85.8101C104.9 94.5165 107.489 100.028 109.729 106.386C111.517 111.462 112.809 116.514 113.144 122.769C113.257 124.887 113.432 127.007 113.5 129.148C113.736 136.596 107.128 157.201 103.425 149.8C102.885 148.722 100.63 152.373 101.215 153.542C104.447 159.999 111.433 146.629 113.55 141.002C117.96 129.276 115.865 114.75 112.852 105.482C109.847 96.2397 107.038 90.9476 109.087 78.4092C110.113 72.1249 110.832 65.8122 110.71 59.6746C110.458 46.9408 105.429 37.8713 98.2959 35.9533C93.6345 34.7009 90.7121 39.5156 89.7833 48.1894C88.7876 57.4944 89.4387 63.7341 86.5209 73.2663C84.7156 79.1665 83.5742 83.3169 84.6046 89.0195C86.0757 97.1557 88.8825 102.692 88.695 112.015C88.5382 119.824 86.92 129.058 87.8714 136.437C89.126 146.16 95.7566 158.728 102.738 157.312C103.635 157.13 105.481 153.08 104.187 153.343Z" fill="black"/>
<path d="M106.15 203.415C108.557 210.927 97.3956 219.615 94.4083 220.729C88.5073 222.932 86.1382 219.961 82.0715 215.466C77.2038 210.087 71.9293 212.988 65.7967 215.066C61.1325 216.647 56.8814 217.209 53.9818 211.518C52.1492 207.92 51.7919 204.117 49.0972 201.746C46.3517 199.328 43.2191 198.345 40.5475 195.591C39.1192 194.118 37.498 192.482 36.8212 189.77C34.8125 181.723 40.4455 178.94 44.112 178.927C50.2563 178.902 54.5745 182.995 60.1871 184.775C66.9322 186.912 72.3625 177.834 78.9568 178.944C85.1517 179.985 87.3804 189.438 93.6401 188.229C97.2027 187.541 101.167 187.138 103.574 191.069C104.745 192.98 107.606 200.003 106.255 203.854C105.272 206.656 107.531 204.834 108.087 203.248C110.424 196.593 106.852 187.882 103.99 185.481C101.893 183.722 99.1909 183.707 96.6433 184.092C94.4627 184.423 92.9664 185.537 90.9995 183.646C89.6626 182.36 88.819 179.954 87.4425 178.647C84.5637 175.915 80.3085 173.957 76.5883 174.864C72.9201 175.755 69.6653 180.648 66.0868 181.247C62.7084 181.812 59.8096 179.751 56.9338 178.125C53.3715 176.108 49.9486 175.11 45.9331 175.057C41.7972 175.002 36.2323 175.772 34.0742 184.239C31.6215 193.863 38.0329 199.284 41.8077 202.105C45.7396 205.042 48.6325 206.809 50.9775 212.904C52.7022 217.386 55.434 220.296 58.9991 220.373C61.9508 220.437 65.5018 218.649 68.5115 217.576C70.2497 216.958 71.9511 216.214 73.6779 216.079C77.5514 215.775 79.3119 218.993 81.9776 222.134C87.4181 228.542 95.5035 225.281 101.859 217.864C105.49 213.625 110.521 206.79 108.28 199.792C107.931 198.699 105.712 202.046 106.15 203.415Z" fill="black"/>
</svg>
